<svg width="60" height="60" viewBox="0 0 60 60" fill="none" xmlns="http://www.w3.org/2000/svg">
<circle cx="30" cy="30" r="30" fill="white"/>
<path fill-rule="evenodd" clip-rule="evenodd" d="M34.3636 32.8181H9.08464C4.06733 32.8181 0 28.778 0 23.7942C0 18.8105 4.06733 14.7703 9.08464 14.7703C9.22657 14.7703 9.36774 14.7736 9.50809 14.7799C9.48922 14.5176 9.47962 14.2527 9.47962 13.9856C9.47962 7.91843 14.4312 3 20.5392 3C25.438 3 29.593 6.16387 31.046 10.5467C32.0962 10.2316 33.21 10.0622 34.3636 10.0622C40.6898 10.0622 45.8182 15.1563 45.8182 21.4402C45.8182 27.7241 40.6898 32.8181 34.3636 32.8181Z" fill="#00CFC5"/>
<rect x="26.0909" y="23.2729" width="32.9091" height="32.909" rx="16.4545" fill="white"/>
<rect x="26.0909" y="23.2729" width="32.9091" height="32.909" rx="16.4545" stroke="#333333" stroke-width="2"/>
<path d="M36.6236 45.8838C35.8059 45.8838 35.0715 45.7432 34.4205 45.4619C33.7746 45.1807 33.2642 44.7874 32.8892 44.2822C32.5194 43.7718 32.3267 43.1911 32.3111 42.54H34.6861C34.6965 42.8161 34.7877 43.0609 34.9595 43.2744C35.1314 43.4827 35.3632 43.6468 35.6548 43.7666C35.9465 43.8864 36.2746 43.9463 36.6392 43.9463C37.009 43.9463 37.3397 43.8812 37.6314 43.751C37.9283 43.6156 38.1575 43.4333 38.3189 43.2041C38.4804 42.9697 38.5611 42.7015 38.5611 42.3994C38.5611 42.0921 38.4752 41.8213 38.3033 41.5869C38.1314 41.3473 37.884 41.1598 37.5611 41.0244C37.2382 40.889 36.858 40.8213 36.4205 40.8213H35.3736V39.0869H36.4205C36.7903 39.0869 37.1184 39.0244 37.4048 38.8994C37.6913 38.7744 37.9127 38.5973 38.0689 38.3682C38.2304 38.139 38.3111 37.8786 38.3111 37.5869C38.3111 37.3005 38.2434 37.0479 38.108 36.8291C37.9726 36.6104 37.7798 36.4411 37.5298 36.3213C37.2851 36.1963 36.9986 36.1338 36.6705 36.1338C36.3371 36.1338 36.0298 36.1937 35.7486 36.3135C35.4673 36.4281 35.2408 36.5921 35.0689 36.8057C34.897 37.0192 34.8059 37.2692 34.7955 37.5557H32.5455C32.5559 36.9202 32.7408 36.3525 33.1002 35.8525C33.4647 35.3473 33.9569 34.9567 34.5767 34.6807C35.1965 34.3994 35.8892 34.2588 36.6548 34.2588C37.4257 34.2588 38.108 34.3994 38.7017 34.6807C39.3007 34.9619 39.7616 35.3447 40.0845 35.8291C40.4127 36.3135 40.5767 36.8525 40.5767 37.4463C40.5767 37.8577 40.4882 38.2327 40.3111 38.5713C40.134 38.9046 39.8814 39.1807 39.5533 39.3994C39.2304 39.613 38.858 39.7588 38.4361 39.8369V39.9307C39.259 40.0296 39.8944 40.3135 40.3423 40.7822C40.7903 41.251 41.009 41.8421 40.9986 42.5557C41.0038 43.1911 40.8189 43.764 40.4439 44.2744C40.0741 44.7796 39.5559 45.1755 38.8892 45.4619C38.2226 45.7432 37.4673 45.8838 36.6236 45.8838ZM42.7173 45.7275V34.415H46.7486C47.8788 34.415 48.8554 34.6416 49.6783 35.0947C50.5064 35.5426 51.1392 36.1911 51.5767 37.04C52.0142 37.8838 52.233 38.889 52.233 40.0557C52.233 41.2275 52.0116 42.2406 51.5689 43.0947C51.1314 43.9437 50.496 44.5947 49.6627 45.0479C48.8345 45.501 47.8476 45.7275 46.7017 45.7275H42.7173ZM46.608 43.7119C47.7017 43.7119 48.522 43.415 49.0689 42.8213C49.6158 42.2275 49.8892 41.3057 49.8892 40.0557C49.8892 38.8161 49.6158 37.902 49.0689 37.3135C48.5272 36.7249 47.7121 36.4307 46.6236 36.4307H45.0611V43.7119H46.608Z" fill="#333333"/>
</svg>
