<svg width="60" height="60" viewBox="0 0 60 60" fill="none" xmlns="http://www.w3.org/2000/svg">
<circle cx="30" cy="30" r="30" fill="white"/>
<path d="M30.9747 7.28442H28.2227V24.0878H30.9747V7.28442Z" fill="#333333"/>
<path d="M27.3229 4.35707L8.53537 15.2041L9.91141 17.5875L28.6989 6.74046L27.3229 4.35707Z" fill="#333333"/>
<path d="M10.6185 17.4508L9.24243 19.8342L23.7946 28.2359L25.1706 25.8525L10.6185 17.4508Z" fill="#333333"/>
<path d="M9.00798 19.1509H6.25589V40.8449H9.00798V19.1509Z" fill="#333333"/>
<path d="M23.7914 31.7643L9.23932 40.166L10.6154 42.5494L25.1675 34.1477L23.7914 31.7643Z" fill="#333333"/>
<path d="M9.91032 42.4103L8.53427 44.7937L27.3218 55.6407L28.6978 53.2573L9.91032 42.4103Z" fill="#333333"/>
<path d="M30.9747 35.9084H28.2227V52.7119H30.9747V35.9084Z" fill="#333333"/>
<path d="M49.2889 42.4064L30.5014 53.2534L31.8774 55.6368L50.665 44.7898L49.2889 42.4064Z" fill="#333333"/>
<path d="M35.403 31.7646L34.0269 34.1479L48.579 42.5497L49.9551 40.1663L35.403 31.7646Z" fill="#333333"/>
<path d="M52.9454 19.1509H50.1933V40.8449H52.9454V19.1509Z" fill="#333333"/>
<path d="M48.5837 17.4499L34.0316 25.8516L35.4077 28.235L49.9598 19.8332L48.5837 17.4499Z" fill="#333333"/>
<path d="M31.8804 4.35782L30.5044 6.74121L49.2919 17.5882L50.668 15.2049L31.8804 4.35782Z" fill="#333333"/>
<path d="M29.5988 37.8907C33.9569 37.8907 37.4898 34.3577 37.4898 29.9997C37.4898 25.6416 33.9569 22.1086 29.5988 22.1086C25.2407 22.1086 21.7078 25.6416 21.7078 29.9997C21.7078 34.3577 25.2407 37.8907 29.5988 37.8907Z" fill="#125DE6"/>
<path d="M29.5988 9.26351C32.1568 9.26351 34.2305 7.1898 34.2305 4.63175C34.2305 2.07371 32.1568 0 29.5988 0C27.0407 0 24.967 2.07371 24.967 4.63175C24.967 7.1898 27.0407 9.26351 29.5988 9.26351Z" fill="#125DE6"/>
<path d="M7.63174 21.9459C10.1898 21.9459 12.2635 19.8722 12.2635 17.3141C12.2635 14.7561 10.1898 12.6824 7.63174 12.6824C5.0737 12.6824 3 14.7561 3 17.3141C3 19.8722 5.0737 21.9459 7.63174 21.9459Z" fill="#125DE6"/>
<path d="M7.63174 47.3143C10.1898 47.3143 12.2635 45.2406 12.2635 42.6825C12.2635 40.1245 10.1898 38.0508 7.63174 38.0508C5.0737 38.0508 3 40.1245 3 42.6825C3 45.2406 5.0737 47.3143 7.63174 47.3143Z" fill="#125DE6"/>
<path d="M29.5988 60.0001C32.1568 60.0001 34.2305 57.9264 34.2305 55.3683C34.2305 52.8103 32.1568 50.7366 29.5988 50.7366C27.0407 50.7366 24.967 52.8103 24.967 55.3683C24.967 57.9264 27.0407 60.0001 29.5988 60.0001Z" fill="#125DE6"/>
<path d="M51.5695 47.3143C54.1276 47.3143 56.2013 45.2406 56.2013 42.6825C56.2013 40.1245 54.1276 38.0508 51.5695 38.0508C49.0115 38.0508 46.9378 40.1245 46.9378 42.6825C46.9378 45.2406 49.0115 47.3143 51.5695 47.3143Z" fill="#125DE6"/>
<path d="M51.5695 21.9459C54.1276 21.9459 56.2013 19.8722 56.2013 17.3141C56.2013 14.7561 54.1276 12.6824 51.5695 12.6824C49.0115 12.6824 46.9378 14.7561 46.9378 17.3141C46.9378 19.8722 49.0115 21.9459 51.5695 21.9459Z" fill="#125DE6"/>
</svg>
