<svg width="60" height="60" viewBox="0 0 60 60" fill="none" xmlns="http://www.w3.org/2000/svg">
<path fill-rule="evenodd" clip-rule="evenodd" d="M54.188 54.1865L52.7131 55.6614C52.2745 56.1 51.5604 56.1 51.1252 55.6614L50.0156 54.5519C48.8132 55.2827 47.521 55.8109 46.1889 56.1331V57.7077C46.1889 58.3255 45.6839 58.8272 45.0661 58.8272H40.8972C40.2794 58.8272 39.7744 58.3255 39.7744 57.7077V56.1364C38.4423 55.8109 37.1501 55.2827 35.9509 54.5519L34.8381 55.6614C34.403 56.1 33.6887 56.1 33.2536 55.6614L30.3038 52.715C29.8653 52.2765 29.8653 51.5623 30.3038 51.1271L31.4133 50.0143C30.6825 48.8118 30.1544 47.5229 29.8321 46.1908H28.2608C27.6396 46.1908 27.1381 45.6859 27.1381 45.068V40.8991C27.1381 40.2813 27.6396 39.7763 28.2608 39.7763H29.8321C30.1544 38.4443 30.6825 37.152 31.4133 35.9496L30.3038 34.84C29.8653 34.4049 29.8653 33.6907 30.3038 33.2521L33.2536 30.3057C33.6887 29.8672 34.403 29.8672 34.8381 30.3057L35.9509 31.4152C37.1501 30.6811 38.4423 30.1563 39.7744 29.8307V28.2595C39.7744 27.6417 40.2794 27.1367 40.8972 27.1367H45.0661C45.6839 27.1367 46.1889 27.6417 46.1889 28.2595V29.8307C47.521 30.1563 48.8132 30.6845 50.0156 31.4152L51.1252 30.3057C51.5603 29.8672 52.2745 29.8672 52.7131 30.3057L55.6595 33.2521C56.098 33.6907 56.098 34.4048 55.6595 34.84L54.55 35.9496C55.284 37.152 55.8122 38.4443 56.1345 39.7763H57.7057C58.3235 39.7763 58.8285 40.2813 58.8285 40.8991V45.068C58.8285 45.6859 58.3235 46.1908 57.7057 46.1908H56.1345C55.8089 47.5229 55.284 48.8117 54.55 50.0143L55.6595 51.1271C56.098 51.5622 56.098 52.2765 55.6595 52.715L54.188 54.1865ZM42.9833 34.8134C47.4944 34.8134 51.1518 38.4707 51.1518 42.9819C51.1518 47.493 47.4945 51.1536 42.9833 51.1536C38.4722 51.1536 34.8116 47.4963 34.8116 42.9819C34.8116 38.4675 38.4723 34.8134 42.9833 34.8134Z" fill="#E632CE"/>
<path fill-rule="evenodd" clip-rule="evenodd" d="M28.2211 28.2229L26.7462 29.6978C26.3111 30.1329 25.5968 30.1329 25.1583 29.6978L24.0488 28.585C22.8463 29.3192 21.5541 29.8473 20.2253 30.1695V31.7407C20.2253 32.3586 19.7203 32.8635 19.1025 32.8635H14.9336C14.3124 32.8635 13.8108 32.3586 13.8108 31.7407V30.1695C12.4787 29.8472 11.1865 29.3191 9.98405 28.5883L8.87452 29.6978C8.436 30.1329 7.72514 30.1329 7.28663 29.6978L4.33678 26.748C3.90167 26.3095 3.90167 25.5986 4.33678 25.1601L5.4496 24.0505C4.71542 22.8481 4.18725 21.5559 3.8651 20.2238H2.29385C1.67604 20.2238 1.17108 19.7222 1.17108 19.1043V14.9321C1.17108 14.3143 1.67604 13.8093 2.29385 13.8093H3.8651C4.18737 12.4805 4.71553 11.1884 5.44632 9.98582L4.33678 8.87629C3.90167 8.43777 3.90167 7.72363 4.33678 7.2884L7.28663 4.33855C7.72514 3.90344 8.436 3.90344 8.87452 4.33855L9.98405 5.44809C11.1865 4.71731 12.4787 4.18914 13.8108 3.86688V2.29563C13.8108 1.67781 14.3124 1.17285 14.9336 1.17285H19.1025C19.7203 1.17285 20.2253 1.67781 20.2253 2.29563V3.86688C21.5541 4.18914 22.8462 4.71731 24.0488 5.44809L25.1583 4.33855C25.5968 3.90344 26.311 3.90344 26.7462 4.33855L29.696 7.2884C30.1346 7.72352 30.1346 8.43777 29.696 8.87629L28.5865 9.98582C29.3173 11.1883 29.8455 12.4805 30.1677 13.8093H31.739C32.3568 13.8093 32.8617 14.3143 32.8617 14.9321V19.1043C32.8617 19.7221 32.3568 20.2238 31.739 20.2238H30.1677C29.8455 21.5559 29.3173 22.8481 28.5865 24.0505L29.696 25.1601C30.1346 25.5986 30.1346 26.3095 29.696 26.748L28.2211 28.2229ZM17.0165 8.8498C21.5275 8.8498 25.1849 12.5071 25.1849 17.0182C25.1849 21.5294 21.5276 25.1867 17.0165 25.1867C12.5053 25.1867 8.84803 21.5294 8.84803 17.0182C8.84803 12.5071 12.5053 8.8498 17.0165 8.8498Z" fill="#333333"/>
<path d="M8.99999 38.4V51C8.99999 52 9.59999 54 12 54H22.8M4.79999 42L8.99999 37.8L13.2 42M19.2 49.8L23.4 54L19.2 58.2" stroke="#333333" stroke-width="3" stroke-linecap="round" stroke-linejoin="round"/>
<path d="M50.4 22.2L50.4 9.60005C50.4 8.60005 49.8 6.60005 47.4 6.60005L36.6 6.60005M54.6 18.6L50.4 22.8L46.2 18.6M40.2 10.8L36 6.60005L40.2 2.40005" stroke="#333333" stroke-width="3" stroke-linecap="round" stroke-linejoin="round"/>
</svg>
