<svg width="60" height="55" viewBox="0 0 60 55" fill="none" xmlns="http://www.w3.org/2000/svg">
<path fill-rule="evenodd" clip-rule="evenodd" d="M27.937 8.66274C27.6603 8.68467 27.402 8.70515 27.1738 8.71577C26.3882 9.04288 25.9077 9.37988 25.5958 10.1973C25.3078 10.9513 25.2698 11.9043 25.2352 12.7715C25.226 13.0025 25.2171 13.2274 25.2037 13.4408C24.1523 13.7971 23.1394 14.1662 22.1546 14.6819C22.0492 14.5713 21.9425 14.4561 21.8339 14.3388C21.0373 13.4785 20.1389 12.5083 18.9086 12.4781C17.9713 12.4549 17.1728 13.0918 16.5584 13.7283C15.7578 14.5578 14.8739 15.6062 14.443 16.6805C14.9649 17.9955 15.719 18.9778 16.7342 19.9632C16.684 20.0948 16.6333 20.226 16.5826 20.3569C16.2141 21.3099 15.8498 22.2521 15.7384 23.2799C15.5564 23.2887 15.3436 23.293 15.1114 23.2976C13.9277 23.3214 12.2425 23.3552 11.5845 24.0447C10.7244 24.9459 10.8286 27.2936 10.9415 28.4596C11.0002 29.0668 11.1573 29.9281 11.6813 30.3256C12.3596 30.8404 13.4379 30.8497 14.4163 30.8582C14.8242 30.8617 15.2147 30.8651 15.5517 30.9048C15.9236 31.9967 16.3186 33.0677 16.7638 34.1324C16.6449 34.2639 16.5013 34.4129 16.3448 34.5752C15.5681 35.381 14.4771 36.5128 14.5485 37.4377C14.6464 38.71 16.3472 40.4197 17.3322 41.1798C17.7923 41.5349 18.4728 41.9385 19.0818 41.8617C19.9039 41.7582 20.8219 40.9132 21.6081 40.1895C21.9068 39.9145 22.1865 39.6571 22.4346 39.4646C22.4993 39.5032 22.5639 39.5419 22.6284 39.5805C23.55 40.1328 24.46 40.6781 25.5059 40.9719C25.5255 41.1827 25.5391 41.4224 25.5537 41.6789C25.6219 42.8757 25.7108 44.4381 26.519 45.1269C27.5041 45.9661 29.9993 45.7773 31.2212 45.6159C31.6181 45.5633 31.9686 45.4487 32.3365 45.2962C33.04 44.4131 33.1266 43.1999 33.2088 42.049C33.2343 41.6918 33.2593 41.3405 33.3023 41.0071C34.5208 40.7104 35.4752 40.1612 36.5491 39.5314C36.7282 39.6785 36.947 39.8841 37.1906 40.1129C38.0297 40.9011 39.1627 41.9653 39.975 41.8666C41.2918 41.7065 42.9791 40.0303 43.721 38.988C44.0944 38.4632 44.4439 37.7686 44.3118 37.1052C44.1356 36.2212 43.12 35.2935 42.3368 34.5781C42.1676 34.4235 42.0092 34.2788 41.8725 34.1466C42.3596 33.1346 42.8391 32.1365 43.2172 31.0769C43.4043 31.0666 43.6225 31.0617 43.8597 31.0564C45.0091 31.0304 46.6032 30.9944 47.2518 30.2931C48.1635 29.3067 48.0915 27.259 47.9766 26.0029C47.9094 25.2674 47.7285 24.2383 47.062 23.7877C46.251 23.2393 44.9074 23.2571 43.8205 23.2715C43.6068 23.2744 43.403 23.2771 43.2152 23.2753C42.8304 22.1606 42.4299 21.0749 41.8932 20.0224C42.0305 19.8944 42.2054 19.7443 42.3992 19.578C43.2586 18.8406 44.4919 17.7823 44.4876 16.8996C44.481 15.625 43.02 14.2875 42.1367 13.4789L42.1326 13.4751C41.5363 12.9294 40.656 12.2259 39.7829 12.3255C38.9138 12.4247 37.8062 13.555 36.9986 14.3791C36.7918 14.5901 36.6048 14.781 36.4464 14.9294C35.3041 14.2559 34.2391 13.8637 32.957 13.5369C32.9386 13.329 32.9249 13.0985 32.9103 12.8542C32.8334 11.5668 32.7337 9.8963 31.8212 9.14072C30.9548 8.42348 29.2426 8.55923 27.937 8.66274ZM33.5116 20.0519C31.7236 19.0525 30.032 18.8736 28.0208 19.0076C25.6732 19.5375 23.6799 20.6453 22.3766 22.7198C22.3044 22.8347 22.2351 22.9513 22.1689 23.0698C22.1024 23.1881 22.039 23.308 21.9788 23.4294C21.9183 23.5508 21.861 23.6736 21.8066 23.798C21.7525 23.9222 21.7014 24.0476 21.6533 24.1744C21.6051 24.3011 21.5603 24.429 21.5187 24.5579C21.477 24.687 21.4385 24.8169 21.4033 24.9477C21.368 25.0785 21.336 25.2102 21.3072 25.3427C21.2785 25.4752 21.2531 25.6083 21.2311 25.742C21.209 25.8757 21.1902 26.0098 21.1747 26.1443C21.1592 26.2788 21.1471 26.4137 21.1384 26.5489C21.1297 26.6841 21.1243 26.8195 21.1223 26.9551C21.1202 27.0905 21.1216 27.2259 21.1264 27.3615C21.131 27.4969 21.139 27.632 21.1504 27.7669C21.1618 27.9019 21.1765 28.0366 21.1946 28.171C21.2128 28.3052 21.2343 28.4389 21.259 28.5723C21.2836 28.7055 21.3117 28.838 21.343 28.9698C21.8743 31.1212 23.3634 33.1969 25.29 34.3243C25.4932 34.4409 25.701 34.5487 25.9133 34.6479C26.1257 34.747 26.342 34.8369 26.5622 34.9178C26.7822 34.9986 27.0053 35.07 27.2315 35.1318C27.4576 35.1938 27.686 35.2461 27.9166 35.2888C28.1472 35.3314 28.3792 35.3642 28.6127 35.3872C28.8462 35.4102 29.0802 35.4234 29.3147 35.4268C29.5492 35.43 29.7835 35.4234 30.0174 35.4067C30.2515 35.3903 30.4843 35.364 30.7161 35.3277C33.1748 34.6636 35.1758 33.5237 36.475 31.265C37.5569 29.3845 37.9145 26.9944 37.327 24.8987C37.2922 24.7714 37.2545 24.6452 37.2135 24.52C37.1725 24.3948 37.1284 24.2705 37.0812 24.1474C37.0339 24.0242 36.9836 23.9024 36.9303 23.7819C36.877 23.6612 36.8206 23.5421 36.7612 23.4243C36.7019 23.3063 36.6397 23.1901 36.5744 23.0756C36.5092 22.9609 36.4412 22.8478 36.3703 22.7365C36.2995 22.6252 36.2259 22.5157 36.1496 22.4079C36.0734 22.3003 35.9943 22.1947 35.9126 22.091C35.831 21.9871 35.7468 21.8855 35.6599 21.786C35.5733 21.6864 35.4841 21.589 35.3925 21.494C35.3007 21.3989 35.2067 21.3062 35.1105 21.2157C35.0141 21.1252 34.9156 21.0372 34.8149 20.9516C34.7141 20.8661 34.6112 20.7831 34.5063 20.7028C34.4014 20.6223 34.2945 20.5445 34.1857 20.4695C34.077 20.3942 33.9664 20.3218 33.8539 20.2522C33.7415 20.1825 33.6273 20.1158 33.5116 20.0519Z" fill="#333333"/>
<path fill-rule="evenodd" clip-rule="evenodd" d="M27.937 8.66274C27.6603 8.68467 27.402 8.70515 27.1738 8.71577C26.3882 9.04288 25.9077 9.37988 25.5958 10.1973C25.3078 10.9513 25.2698 11.9043 25.2352 12.7715C25.226 13.0025 25.2171 13.2274 25.2037 13.4408C24.1523 13.7971 23.1394 14.1662 22.1546 14.6819C22.0492 14.5713 21.9425 14.4561 21.8339 14.3388C21.0373 13.4785 20.1389 12.5083 18.9086 12.4781C17.9713 12.4549 17.1728 13.0918 16.5584 13.7283C15.7578 14.5578 14.8739 15.6062 14.443 16.6805C14.9649 17.9955 15.719 18.9778 16.7342 19.9632C16.684 20.0948 16.6333 20.226 16.5826 20.3569C16.2141 21.3099 15.8498 22.2521 15.7384 23.2799C15.5564 23.2887 15.3436 23.293 15.1114 23.2976C13.9277 23.3214 12.2425 23.3552 11.5845 24.0447C10.7244 24.9459 10.8286 27.2936 10.9415 28.4596C11.0002 29.0668 11.1573 29.9281 11.6813 30.3256C12.3596 30.8404 13.4379 30.8497 14.4163 30.8582C14.8242 30.8617 15.2147 30.8651 15.5517 30.9048C15.9236 31.9967 16.3186 33.0677 16.7638 34.1324C16.6449 34.2639 16.5013 34.4129 16.3448 34.5752C15.5681 35.381 14.4771 36.5128 14.5485 37.4377C14.6464 38.71 16.3472 40.4197 17.3322 41.1798C17.7923 41.5349 18.4728 41.9385 19.0818 41.8617C19.9039 41.7582 20.8219 40.9132 21.6081 40.1895C21.9068 39.9145 22.1865 39.6571 22.4346 39.4646C22.4993 39.5032 22.5639 39.5419 22.6284 39.5805C23.55 40.1328 24.46 40.6781 25.5059 40.9719C25.5255 41.1827 25.5391 41.4224 25.5537 41.6789C25.6219 42.8757 25.7108 44.4381 26.519 45.1269C27.5041 45.9661 29.9993 45.7773 31.2212 45.6159C31.6181 45.5633 31.9686 45.4487 32.3365 45.2962C33.04 44.4131 33.1266 43.1999 33.2088 42.049C33.2343 41.6918 33.2593 41.3405 33.3023 41.0071C34.5208 40.7104 35.4752 40.1612 36.5491 39.5314C36.7282 39.6785 36.947 39.8841 37.1906 40.1129C38.0297 40.9011 39.1627 41.9653 39.975 41.8666C41.2918 41.7065 42.9791 40.0303 43.721 38.988C44.0944 38.4632 44.4439 37.7686 44.3118 37.1052C44.1356 36.2212 43.12 35.2935 42.3368 34.5781C42.1676 34.4235 42.0092 34.2788 41.8725 34.1466C42.3596 33.1346 42.8391 32.1365 43.2172 31.0769C43.4043 31.0666 43.6225 31.0617 43.8597 31.0564C45.0091 31.0304 46.6032 30.9944 47.2518 30.2931C48.1635 29.3067 48.0915 27.259 47.9766 26.0029C47.9094 25.2674 47.7285 24.2383 47.062 23.7877C46.251 23.2393 44.9074 23.2571 43.8205 23.2715C43.6068 23.2744 43.403 23.2771 43.2152 23.2753C42.8304 22.1606 42.4299 21.0749 41.8932 20.0224C42.0305 19.8944 42.2054 19.7443 42.3992 19.578C43.2586 18.8406 44.4919 17.7823 44.4876 16.8996C44.481 15.625 43.02 14.2875 42.1367 13.4789L42.1326 13.4751C41.5363 12.9294 40.656 12.2259 39.7829 12.3255C38.9138 12.4247 37.8062 13.555 36.9986 14.3791C36.7918 14.5901 36.6048 14.781 36.4464 14.9294C35.3041 14.2559 34.2391 13.8637 32.957 13.5369C32.9386 13.329 32.9249 13.0985 32.9103 12.8542C32.8334 11.5668 32.7337 9.8963 31.8212 9.14072C30.9548 8.42348 29.2426 8.55923 27.937 8.66274ZM33.5116 20.0519C31.7236 19.0525 30.032 18.8736 28.0208 19.0076C25.6732 19.5375 23.6799 20.6453 22.3766 22.7198C22.3044 22.8347 22.2351 22.9513 22.1689 23.0698C22.1024 23.1881 22.039 23.308 21.9788 23.4294C21.9183 23.5508 21.861 23.6736 21.8066 23.798C21.7525 23.9222 21.7014 24.0476 21.6533 24.1744C21.6051 24.3011 21.5603 24.429 21.5187 24.5579C21.477 24.687 21.4385 24.8169 21.4033 24.9477C21.368 25.0785 21.336 25.2102 21.3072 25.3427C21.2785 25.4752 21.2531 25.6083 21.2311 25.742C21.209 25.8757 21.1902 26.0098 21.1747 26.1443C21.1592 26.2788 21.1471 26.4137 21.1384 26.5489C21.1297 26.6841 21.1243 26.8195 21.1223 26.9551C21.1202 27.0905 21.1216 27.2259 21.1264 27.3615C21.131 27.4969 21.139 27.632 21.1504 27.7669C21.1618 27.9019 21.1765 28.0366 21.1946 28.171C21.2128 28.3052 21.2343 28.4389 21.259 28.5723C21.2836 28.7055 21.3117 28.838 21.343 28.9698C21.8743 31.1212 23.3634 33.1969 25.29 34.3243C25.4932 34.4409 25.701 34.5487 25.9133 34.6479C26.1257 34.747 26.342 34.8369 26.5622 34.9178C26.7822 34.9986 27.0053 35.07 27.2315 35.1318C27.4576 35.1938 27.686 35.2461 27.9166 35.2888C28.1472 35.3314 28.3792 35.3642 28.6127 35.3872C28.8462 35.4102 29.0802 35.4234 29.3147 35.4268C29.5492 35.43 29.7835 35.4234 30.0174 35.4067C30.2515 35.3903 30.4843 35.364 30.7161 35.3277C33.1748 34.6636 35.1758 33.5237 36.475 31.265C37.5569 29.3845 37.9145 26.9944 37.327 24.8987C37.2922 24.7714 37.2545 24.6452 37.2135 24.52C37.1725 24.3948 37.1284 24.2705 37.0812 24.1474C37.0339 24.0242 36.9836 23.9024 36.9303 23.7819C36.877 23.6612 36.8206 23.5421 36.7612 23.4243C36.7019 23.3063 36.6397 23.1901 36.5744 23.0756C36.5092 22.9609 36.4412 22.8478 36.3703 22.7365C36.2995 22.6252 36.2259 22.5157 36.1496 22.4079C36.0734 22.3003 35.9943 22.1947 35.9126 22.091C35.831 21.9871 35.7468 21.8855 35.6599 21.786C35.5733 21.6864 35.4841 21.589 35.3925 21.494C35.3007 21.3989 35.2067 21.3062 35.1105 21.2157C35.0141 21.1252 34.9156 21.0372 34.8149 20.9516C34.7141 20.8661 34.6112 20.7831 34.5063 20.7028C34.4014 20.6223 34.2945 20.5445 34.1857 20.4695C34.077 20.3942 33.9664 20.3218 33.8539 20.2522C33.7415 20.1825 33.6273 20.1158 33.5116 20.0519Z" fill="#333333"/>
<path fill-rule="evenodd" clip-rule="evenodd" d="M27.937 8.66274C27.6603 8.68467 27.402 8.70515 27.1738 8.71577C26.3882 9.04288 25.9077 9.37988 25.5958 10.1973C25.3078 10.9513 25.2698 11.9043 25.2352 12.7715C25.226 13.0025 25.2171 13.2274 25.2037 13.4408C24.1523 13.7971 23.1394 14.1662 22.1546 14.6819C22.0492 14.5713 21.9425 14.4561 21.8339 14.3388C21.0373 13.4785 20.1389 12.5083 18.9086 12.4781C17.9713 12.4549 17.1728 13.0918 16.5584 13.7283C15.7578 14.5578 14.8739 15.6062 14.443 16.6805C14.9649 17.9955 15.719 18.9778 16.7342 19.9632C16.684 20.0948 16.6333 20.226 16.5826 20.3569C16.2141 21.3099 15.8498 22.2521 15.7384 23.2799C15.5564 23.2887 15.3436 23.293 15.1114 23.2976C13.9277 23.3214 12.2425 23.3552 11.5845 24.0447C10.7244 24.9459 10.8286 27.2936 10.9415 28.4596C11.0002 29.0668 11.1573 29.9281 11.6813 30.3256C12.3596 30.8404 13.4379 30.8497 14.4163 30.8582C14.8242 30.8617 15.2147 30.8651 15.5517 30.9048C15.9236 31.9967 16.3186 33.0677 16.7638 34.1324C16.6449 34.2639 16.5013 34.4129 16.3448 34.5752C15.5681 35.381 14.4771 36.5128 14.5485 37.4377C14.6464 38.71 16.3472 40.4197 17.3322 41.1798C17.7923 41.5349 18.4728 41.9385 19.0818 41.8617C19.9039 41.7582 20.8219 40.9132 21.6081 40.1895C21.9068 39.9145 22.1865 39.6571 22.4346 39.4646C22.4993 39.5032 22.5639 39.5419 22.6284 39.5805C23.55 40.1328 24.46 40.6781 25.5059 40.9719C25.5255 41.1827 25.5391 41.4224 25.5537 41.6789C25.6219 42.8757 25.7108 44.4381 26.519 45.1269C27.5041 45.9661 29.9993 45.7773 31.2212 45.6159C31.6181 45.5633 31.9686 45.4487 32.3365 45.2962C33.04 44.4131 33.1266 43.1999 33.2088 42.049C33.2343 41.6918 33.2593 41.3405 33.3023 41.0071C34.5208 40.7104 35.4752 40.1612 36.5491 39.5314C36.7282 39.6785 36.947 39.8841 37.1906 40.1129C38.0297 40.9011 39.1627 41.9653 39.975 41.8666C41.2918 41.7065 42.9791 40.0303 43.721 38.988C44.0944 38.4632 44.4439 37.7686 44.3118 37.1052C44.1356 36.2212 43.12 35.2935 42.3368 34.5781C42.1676 34.4235 42.0092 34.2788 41.8725 34.1466C42.3596 33.1346 42.8391 32.1365 43.2172 31.0769C43.4043 31.0666 43.6225 31.0617 43.8597 31.0564C45.0091 31.0304 46.6032 30.9944 47.2518 30.2931C48.1635 29.3067 48.0915 27.259 47.9766 26.0029C47.9094 25.2674 47.7285 24.2383 47.062 23.7877C46.251 23.2393 44.9074 23.2571 43.8205 23.2715C43.6068 23.2744 43.403 23.2771 43.2152 23.2753C42.8304 22.1606 42.4299 21.0749 41.8932 20.0224C42.0305 19.8944 42.2054 19.7443 42.3992 19.578C43.2586 18.8406 44.4919 17.7823 44.4876 16.8996C44.481 15.625 43.02 14.2875 42.1367 13.4789L42.1326 13.4751C41.5363 12.9294 40.656 12.2259 39.7829 12.3255C38.9138 12.4247 37.8062 13.555 36.9986 14.3791C36.7918 14.5901 36.6048 14.781 36.4464 14.9294C35.3041 14.2559 34.2391 13.8637 32.957 13.5369C32.9386 13.329 32.9249 13.0985 32.9103 12.8542C32.8334 11.5668 32.7337 9.8963 31.8212 9.14072C30.9548 8.42348 29.2426 8.55923 27.937 8.66274ZM33.5116 20.0519C31.7236 19.0525 30.032 18.8736 28.0208 19.0076C25.6732 19.5375 23.6799 20.6453 22.3766 22.7198C22.3044 22.8347 22.2351 22.9513 22.1689 23.0698C22.1024 23.1881 22.039 23.308 21.9788 23.4294C21.9183 23.5508 21.861 23.6736 21.8066 23.798C21.7525 23.9222 21.7014 24.0476 21.6533 24.1744C21.6051 24.3011 21.5603 24.429 21.5187 24.5579C21.477 24.687 21.4385 24.8169 21.4033 24.9477C21.368 25.0785 21.336 25.2102 21.3072 25.3427C21.2785 25.4752 21.2531 25.6083 21.2311 25.742C21.209 25.8757 21.1902 26.0098 21.1747 26.1443C21.1592 26.2788 21.1471 26.4137 21.1384 26.5489C21.1297 26.6841 21.1243 26.8195 21.1223 26.9551C21.1202 27.0905 21.1216 27.2259 21.1264 27.3615C21.131 27.4969 21.139 27.632 21.1504 27.7669C21.1618 27.9019 21.1765 28.0366 21.1946 28.171C21.2128 28.3052 21.2343 28.4389 21.259 28.5723C21.2836 28.7055 21.3117 28.838 21.343 28.9698C21.8743 31.1212 23.3634 33.1969 25.29 34.3243C25.4932 34.4409 25.701 34.5487 25.9133 34.6479C26.1257 34.747 26.342 34.8369 26.5622 34.9178C26.7822 34.9986 27.0053 35.07 27.2315 35.1318C27.4576 35.1938 27.686 35.2461 27.9166 35.2888C28.1472 35.3314 28.3792 35.3642 28.6127 35.3872C28.8462 35.4102 29.0802 35.4234 29.3147 35.4268C29.5492 35.43 29.7835 35.4234 30.0174 35.4067C30.2515 35.3903 30.4843 35.364 30.7161 35.3277C33.1748 34.6636 35.1758 33.5237 36.475 31.265C37.5569 29.3845 37.9145 26.9944 37.327 24.8987C37.2922 24.7714 37.2545 24.6452 37.2135 24.52C37.1725 24.3948 37.1284 24.2705 37.0812 24.1474C37.0339 24.0242 36.9836 23.9024 36.9303 23.7819C36.877 23.6612 36.8206 23.5421 36.7612 23.4243C36.7019 23.3063 36.6397 23.1901 36.5744 23.0756C36.5092 22.9609 36.4412 22.8478 36.3703 22.7365C36.2995 22.6252 36.2259 22.5157 36.1496 22.4079C36.0734 22.3003 35.9943 22.1947 35.9126 22.091C35.831 21.9871 35.7468 21.8855 35.6599 21.786C35.5733 21.6864 35.4841 21.589 35.3925 21.494C35.3007 21.3989 35.2067 21.3062 35.1105 21.2157C35.0141 21.1252 34.9156 21.0372 34.8149 20.9516C34.7141 20.8661 34.6112 20.7831 34.5063 20.7028C34.4014 20.6223 34.2945 20.5445 34.1857 20.4695C34.077 20.3942 33.9664 20.3218 33.8539 20.2522C33.7415 20.1825 33.6273 20.1158 33.5116 20.0519Z" fill="#FF9500"/>
<path d="M59.4178 19.0914C58.8001 18.6625 57.9479 18.8112 57.5189 19.4289L56.8383 20.4069C55.3627 15.0878 52.3143 10.2778 48.0648 6.65169C43.0374 2.36212 36.6202 0 30.0028 0C23.3855 0 16.9683 2.36212 11.9409 6.65169C6.97077 10.8955 3.63064 16.7579 2.54395 23.1694C2.41812 23.9129 2.92143 24.6164 3.65923 24.7422C4.39704 24.868 5.10624 24.3647 5.23207 23.6269C7.27962 11.5189 17.7004 2.73388 30.0028 2.73388C41.2987 2.73388 50.9988 10.1463 54.0987 20.7329L53.3609 20.2181C52.7432 19.7892 51.891 19.9379 51.4621 20.5556C51.0331 21.1733 51.1818 22.0255 51.7995 22.4544L55.3456 24.931C55.5743 25.0911 55.8432 25.1769 56.1234 25.1769C56.2035 25.1769 56.2836 25.1712 56.3636 25.154C56.7239 25.0911 57.0328 24.8909 57.2444 24.5935L59.7552 20.996C60.1842 20.3783 60.0355 19.5261 59.4178 19.0971V19.0914Z" fill="#333333"/>
<path d="M56.3408 29.5235C55.9804 29.4663 55.6201 29.5463 55.3227 29.758C55.0253 29.9696 54.8308 30.2841 54.7679 30.6445C52.7204 42.7525 42.2996 51.5375 29.9972 51.5375C18.7013 51.5375 9.00119 44.1251 5.90127 33.5385L6.63908 34.0532C7.25677 34.4822 8.10897 34.3335 8.53792 33.7158C8.96688 33.0981 8.81817 32.2459 8.20048 31.817L4.65444 29.3404C4.35703 29.1345 3.99099 29.0545 3.63639 29.1174C3.27606 29.1803 2.96721 29.3805 2.7556 29.6779L0.244774 33.2754C-0.184182 33.8931 -0.0354769 34.7453 0.58222 35.1742C0.810996 35.3344 1.07981 35.4202 1.36006 35.4202C1.80617 35.4202 2.22369 35.2028 2.48106 34.8368L3.16167 33.8588C4.63728 39.1778 7.68573 43.9879 11.9353 47.614C16.9626 51.9035 23.3798 54.2657 29.9972 54.2657C36.6145 54.2657 43.0317 51.9035 48.0591 47.614C53.0292 43.3702 56.3694 37.5078 57.4561 31.0963C57.5819 30.3528 57.0786 29.6493 56.3408 29.5235Z" fill="#333333"/>
</svg>
