<svg width="32" height="32" viewBox="0 0 32 32" fill="none" xmlns="http://www.w3.org/2000/svg">
<path d="M28.8002 15.2C28.8002 22.2692 23.0694 28 16.0002 28C8.93095 28 3.2002 22.2692 3.2002 15.2C3.2002 8.13076 8.93095 2.4 16.0002 2.4C23.0694 2.4 28.8002 8.13076 28.8002 15.2Z" fill="#555555"/>
<path d="M4.59985 29.2394C4.25289 29.3697 3.94296 29.0861 4.04198 28.729L6.04715 21.497C6.14617 21.1399 6.57987 20.9771 6.82781 21.2039L11.8486 25.7982C12.0966 26.025 11.9728 26.4714 11.6258 26.6017L4.59985 29.2394Z" fill="#555555"/>
<path d="M10.2402 11.36C10.2402 10.6531 10.8133 10.08 11.5202 10.08C12.2272 10.08 12.8002 10.6531 12.8002 11.36V13.92C12.8002 14.6269 12.2272 15.2 11.5202 15.2C10.8133 15.2 10.2402 14.6269 10.2402 13.92V11.36Z" fill="white"/>
<path d="M18.5602 11.36C18.5602 10.6531 19.1333 10.08 19.8402 10.08C20.5472 10.08 21.1202 10.6531 21.1202 11.36V13.92C21.1202 14.6269 20.5472 15.2 19.8402 15.2C19.1333 15.2 18.5602 14.6269 18.5602 13.92V11.36Z" fill="white"/>
<path d="M15.6891 17.7172C17.1892 17.7324 18.6238 18.2711 20.2891 19.151C20.7578 19.3987 20.9368 19.9797 20.6891 20.4485C20.4414 20.9172 19.8604 21.0968 19.3916 20.8491C17.8165 20.0169 16.7099 19.6477 15.6698 19.6372C14.7038 19.6275 13.6787 19.9263 12.2754 20.6803L11.9898 20.8372C11.5272 21.0964 10.9421 20.9316 10.6829 20.4691C10.4238 20.0066 10.5885 19.4214 11.051 19.1622L11.3648 18.9903C12.9179 18.1554 14.2738 17.703 15.6891 17.7172Z" fill="white"/>
</svg>
