<svg width="70" height="70" viewBox="0 0 70 70" fill="none" xmlns="http://www.w3.org/2000/svg">
<path d="M57.6754 29.5796C60.7694 34.2206 59.3531 38.9153 56.2007 42.063C54.5487 43.722 52.626 45.003 50.3464 45.6726C50.0827 45.7566 49.812 45.8476 49.4947 45.948C48.9067 47.4063 48.293 48.8646 47.7284 50.3346C46.263 54.1753 43.5097 56.8073 39.942 58.6763C39.8907 58.7066 39.837 58.73 39.7927 58.7603C36.7804 60.613 33.4087 60.9303 29.9997 60.977C29.1597 60.991 28.2964 60.8626 27.4937 60.6316C23.1141 59.3763 19.3224 57.3416 17.4487 52.8313C16.926 51.5853 16.2447 50.4046 15.7011 49.161C15.0244 47.6303 15.113 45.948 14.903 44.3333C14.686 42.7116 14.4737 41.083 14.4504 39.4496C14.4154 37.198 14.5064 34.944 14.6464 32.6946C14.7537 30.891 15.0501 29.0966 15.1854 27.2976C15.3884 24.5723 16.3707 22.141 17.7941 19.8566C18.0017 19.5276 18.1884 19.1916 18.3844 18.8696C17.9574 18.1906 17.5304 17.598 17.1874 16.961C16.4781 15.6473 16.3497 14.2683 16.8794 12.8683C17.213 11.9863 17.682 11.7413 18.5967 11.9513C19.2944 12.1146 19.9781 12.523 20.7434 11.9513C20.6337 11.48 20.5147 11.004 20.3771 10.4206C20.6991 10.3133 21.0047 10.1173 21.2824 10.1476C21.8377 10.206 22.3767 10.4346 22.9274 10.514C23.4221 10.584 23.9517 10.6446 24.43 10.5466C27.8087 9.82797 31.2411 9.49431 34.6734 9.20264C36.1317 9.07664 37.5901 8.81531 39.0227 8.49564C41.0994 8.02664 43.1737 8.05697 45.2574 8.32764C47.2454 8.58431 48.8507 9.60631 50.3207 10.892C50.785 11.3003 51.2657 11.6806 51.821 12.1426C52.0707 11.7226 52.2854 11.2793 52.577 10.8966C52.9877 10.36 53.417 9.82797 53.9 9.36597C54.2477 9.02764 54.6187 9.13264 54.894 9.63897C54.607 10.612 53.508 11.214 53.396 12.446C53.697 12.3993 53.9117 12.3923 54.1147 12.334C54.4857 12.229 54.9337 11.9793 55.1087 12.5253C55.2744 13.02 54.7517 13.153 54.4414 13.3606C54.2547 13.4796 54.0284 13.5426 53.8347 13.6546C53.6924 13.7386 53.571 13.86 53.347 14.035C53.55 14.3593 53.6994 14.7046 53.9467 14.987C54.817 15.981 55.4214 17.1196 55.8554 18.3516C56.8844 21.308 57.6404 24.3016 57.2834 27.4726C57.2017 28.1983 57.218 28.896 57.673 29.582L57.6754 29.5796Z" fill="white"/>
<path d="M57.6755 29.5797C57.2205 28.896 57.2042 28.196 57.2858 27.4703C57.6428 24.2993 56.8868 21.3033 55.8578 18.3493C55.4238 17.1197 54.8195 15.9787 53.9492 14.9847C53.7018 14.7047 53.5525 14.357 53.3495 14.0327C53.5735 13.8577 53.6948 13.734 53.8372 13.6523C54.0308 13.538 54.2572 13.4773 54.4438 13.3583C54.7542 13.1507 55.2768 13.0153 55.1112 12.523C54.9362 11.9747 54.4858 12.2267 54.1172 12.3317C53.9118 12.3923 53.6972 12.3993 53.3985 12.4437C53.5082 11.2117 54.6072 10.6097 54.8965 9.63665C54.6212 9.13032 54.2525 9.02532 53.9025 9.36365C53.4195 9.82565 52.9902 10.3577 52.5795 10.8943C52.2878 11.277 52.0732 11.7203 51.8235 12.1403C51.2682 11.6783 50.7875 11.298 50.3232 10.8897C48.8555 9.60399 47.2502 8.58199 45.2598 8.32532C43.1762 8.05465 41.1018 8.02432 39.0252 8.49332C37.5925 8.81299 36.1342 9.07432 34.6758 9.20032C31.2412 9.49199 27.8112 9.82565 24.4325 10.5443C23.9542 10.6423 23.4245 10.5817 22.9298 10.5117C22.3792 10.4323 21.8402 10.2037 21.2848 10.1453C21.0072 10.115 20.7038 10.311 20.3795 10.4183C20.5172 11.0017 20.6362 11.4777 20.7458 11.949C19.9805 12.523 19.2968 12.1147 18.5992 11.949C17.6845 11.739 17.2155 11.984 16.8818 12.866C16.3522 14.266 16.4805 15.645 17.1898 16.9587C17.5328 17.5957 17.9622 18.1883 18.3868 18.8673C18.1908 19.1893 18.0042 19.5253 17.7965 19.8543C16.3732 22.1387 15.3908 24.57 15.1878 27.2953C15.0525 29.0943 14.7562 30.8887 14.6488 32.6923C14.5088 34.9417 14.4178 37.1957 14.4528 39.4473C14.4762 41.0807 14.6862 42.7093 14.9055 44.331C15.1155 45.9457 15.0268 47.628 15.7035 49.1587C16.2472 50.4023 16.9285 51.5853 17.4512 52.829C19.3272 57.3393 23.1165 59.374 27.4962 60.6293C28.2988 60.8603 29.1598 60.9887 30.0022 60.9747C33.4112 60.9257 36.7828 60.6107 39.7952 58.758C39.8395 58.7277 39.8932 58.7043 39.9445 58.674C43.5145 56.805 46.2678 54.173 47.7308 50.3323C48.2978 48.8623 48.9115 47.404 49.4972 45.9457C49.8145 45.8453 50.0828 45.7543 50.3488 45.6703C52.6285 45.0007 54.5512 43.7197 56.2032 42.0607C59.3532 38.913 60.7718 34.2207 57.6778 29.5773L57.6755 29.5797ZM56.3175 39.5733C54.6328 42.07 52.2668 43.8293 49.3035 44.6157C48.5358 44.8187 48.1788 45.2457 47.8988 45.9037C47.2455 47.467 46.6108 49.0397 45.8665 50.5563C44.3405 53.669 41.9698 55.9323 38.8082 57.358C37.8935 57.7803 36.9392 58.1303 36.0105 58.5387C35.3105 58.8467 34.6805 58.6833 34.0855 58.3053C33.5675 57.974 33.0892 57.561 32.5572 57.246C32.3542 57.1247 32.0485 57.1783 31.7848 57.148C31.7685 57.4047 31.6588 57.694 31.7452 57.904C31.8945 58.2587 32.1698 58.5573 32.4452 58.9563C31.5982 59.185 31.0988 58.7393 30.6812 58.2143C30.4035 57.869 30.2612 57.414 29.9952 57.0523C29.8925 56.917 29.5822 56.8167 29.4258 56.8657C29.2742 56.9147 29.0758 57.197 29.0922 57.351C29.1365 57.7313 29.2952 58.1047 29.4118 58.4757C29.4772 58.66 29.5565 58.8373 29.7712 59.367C28.5182 58.289 28.5858 56.9333 27.8975 56.0397C27.2955 55.9837 27.1065 56.2987 27.1625 56.7537C27.2418 57.3603 27.3865 57.9577 27.5265 58.6693C26.3832 58.4803 25.5268 57.9227 24.6192 57.5143C22.1878 56.4247 20.5942 54.5393 19.3692 52.2083C17.9528 49.4993 17.0405 46.704 17.0125 43.631C17.0125 43.0733 16.9005 42.5087 16.8118 41.9557C16.3545 39.1977 16.4338 36.435 16.6415 33.67C16.7862 31.696 16.9822 29.7313 17.1198 27.7573C17.2645 25.5803 17.7638 23.5037 18.8418 21.6113C20.2395 19.1543 21.6512 16.695 24.2482 15.1783C24.4325 15.442 24.5515 15.8177 24.7942 15.925C25.0578 16.044 25.4498 15.9717 25.7532 15.8783C27.0458 15.4723 28.3222 15.008 29.6148 14.602C30.8958 14.2053 32.1978 14.0677 33.5512 14.3663C31.7568 15.449 29.4025 15.2623 27.9022 16.8653C28.1448 17.5163 28.4925 17.4883 28.9218 17.36C30.3802 16.9237 31.8502 16.5153 33.3085 16.079C34.9792 15.582 36.6102 15.512 38.2972 16.0977C39.6808 16.5807 41.1322 16.8607 42.5602 17.199C44.3848 17.6353 45.2925 18.8953 45.6658 20.629C45.7708 21.1213 45.8432 21.6347 45.8572 22.1457C45.9552 25.053 46.5828 27.853 47.4975 30.6017C47.7798 31.458 47.9128 32.1767 47.2152 32.949C46.8185 33.3853 46.6458 34.041 46.4195 34.622C46.3145 34.8717 46.1838 35.2497 46.2888 35.4317C46.6808 36.0943 46.5058 36.7173 46.3845 37.3777C46.3495 37.569 46.5968 37.87 46.7952 38.017C46.8652 38.073 47.2455 37.9073 47.3248 37.7603C48.0878 36.3183 49.0468 35.0117 49.4902 33.383C49.9195 31.7753 51.0558 30.5037 52.4442 29.561C53.6505 28.7443 55.3888 29.2063 56.3035 30.555C58.3848 33.6397 58.3428 36.582 56.3198 39.585L56.3175 39.5733Z" fill="black"/>
<path d="M44.4221 33.0703C43.1995 32.6059 42.3315 31.4346 40.8498 31.4906C40.8405 32.0856 40.8708 32.6409 40.8125 33.1893C40.7121 34.1366 40.2175 34.7713 39.6061 34.8389C38.9901 34.9089 38.3695 34.4213 38.0428 33.5276C37.8328 32.9513 37.7091 32.3446 37.5131 31.6306C37.1211 31.7963 36.7688 31.9199 36.4445 32.0926C36.0991 32.2746 35.7911 32.5313 35.4411 32.6993C35.3338 32.7506 35.1005 32.6643 34.9978 32.5663C34.8975 32.4683 34.8065 32.2349 34.8555 32.1276C34.9931 31.8289 35.1611 31.5209 35.3945 31.2923C37.5831 29.1549 42.1075 29.2366 44.2331 31.4556C44.6135 31.8546 45.0731 32.2886 44.4198 33.0703H44.4221Z" fill="black"/>
<path d="M21.0562 32.2466C21.9848 30.7626 23.3708 30.2656 24.8222 30.0743C26.8615 29.806 28.7072 30.52 30.3988 31.6213C30.5808 31.7403 30.7302 32.0996 30.6952 32.3143C30.6298 32.7133 30.2402 32.816 29.8972 32.725C29.1972 32.5406 28.5158 32.2956 27.7225 32.0436C27.6058 32.4893 27.5055 32.851 27.4192 33.215C27.3422 33.5416 27.3398 33.8986 27.2022 34.195C26.9268 34.7806 26.4975 35.224 25.7788 35.2076C25.1488 35.1913 24.5678 34.6476 24.4722 33.8706C24.3905 33.2173 24.4442 32.5453 24.4395 31.8406C23.5972 31.7893 22.9952 32.2093 22.3558 32.543C21.9218 32.7693 21.9125 32.7553 21.0585 32.2513L21.0562 32.2466Z" fill="black"/>
<path d="M31.5491 48.3466C29.6054 48.531 27.8461 48.2836 26.2174 47.3596C25.9748 47.222 25.6808 47.1123 25.5198 46.9046C25.3751 46.718 25.3051 46.4006 25.3518 46.172C25.3774 46.0436 25.7134 45.8826 25.8931 45.899C26.2804 45.934 26.6584 46.0646 27.0364 46.1743C29.9414 47.012 32.7158 46.704 35.3524 45.22C35.8424 44.9446 36.3231 44.6483 36.8154 44.373C37.1374 44.191 37.5318 44.1373 37.7068 44.4896C37.8328 44.744 37.8141 45.1546 37.6951 45.423C37.5691 45.7123 37.2798 45.9596 37.0114 46.1533C35.3431 47.3573 33.5651 48.2906 31.5491 48.349V48.3466Z" fill="black"/>
<path d="M31.3461 28.84C31.9201 28.5903 32.2538 28.8563 32.3821 29.232C32.5805 29.806 32.7811 30.4337 32.7461 31.024C32.6808 32.1417 32.4661 33.2523 32.2818 34.3607C32.1348 35.2473 31.9178 36.1247 31.7685 37.0113C31.5865 38.0987 31.6938 39.1463 32.3168 40.0983C32.4381 40.2827 32.5431 40.488 32.6061 40.7003C32.7205 41.083 32.2888 41.5567 31.9178 41.405C31.5211 41.2417 31.1035 40.999 30.8375 40.6747C30.2121 39.914 29.8761 38.9877 29.9461 38.0077C30.0138 37.0627 30.2051 36.1223 30.4175 35.196C30.6158 34.3187 30.9541 33.4717 31.1501 32.5943C31.3718 31.6073 31.5678 30.6063 31.3111 29.5797C31.2505 29.3347 31.3321 29.057 31.3461 28.8353V28.84Z" fill="black"/>
<path d="M51.8188 35.6019C51.3358 36.7359 51.0068 37.5036 50.6825 38.2736C50.5215 38.6539 50.3231 39.0366 49.8355 38.9059C49.3665 38.7776 49.2871 38.3366 49.3851 37.9376C49.9008 35.8656 50.7968 33.9943 52.5841 32.7226C53.3541 32.1743 54.2525 31.8009 55.1135 31.3879C55.3491 31.2759 55.6571 31.2736 55.9301 31.2876C56.2661 31.3039 56.5135 31.8289 56.2778 32.0576C55.9628 32.3609 55.5988 32.6409 55.2068 32.8299C54.3318 33.2499 53.5291 33.7423 52.8688 34.6033C53.1511 34.9999 53.4591 35.3826 53.7088 35.7979C53.9398 36.1783 54.1685 36.5796 54.2781 37.0043C54.3295 37.2049 54.1591 37.5969 53.9818 37.6833C53.8091 37.7673 53.4171 37.6483 53.2678 37.4849C52.8245 36.9973 52.4535 36.4443 51.8188 35.6043V35.6019Z" fill="black"/>
<path d="M45.2529 28.0163C44.7232 27.8226 44.3662 27.6966 44.0139 27.5613C42.8589 27.1156 41.7132 26.642 40.5465 26.229C39.2469 25.7693 37.9099 25.6596 36.5449 25.9443C36.1879 26.019 35.8075 25.97 35.4599 25.977C35.2732 25.389 35.5159 25.0926 35.8892 24.9083C36.7665 24.4766 37.6975 24.297 38.6822 24.381C40.6889 24.549 42.5135 25.2886 44.2915 26.1613C44.6322 26.3293 44.9612 26.6186 45.1595 26.9383C45.3042 27.1693 45.2225 27.5403 45.2529 28.0186V28.0163Z" fill="black"/>
<path d="M28.9987 25.5383C28.693 25.7413 28.5367 25.9186 28.3547 25.9489C28.1494 25.9839 27.916 25.9046 27.7037 25.8463C25.599 25.2653 23.5947 25.5453 21.6674 26.5229C21.6184 26.5486 21.5694 26.5789 21.5204 26.6046C21.1774 26.7819 20.8344 27.0549 20.4517 26.7073C20.167 26.4483 20.2907 25.9279 20.797 25.5756C23.086 23.9866 25.557 23.7136 28.154 24.6819C28.4597 24.7963 28.6627 25.1836 29.0034 25.5383H28.9987Z" fill="black"/>
</svg>
