<svg width="70" height="70" viewBox="0 0 70 70" fill="none" xmlns="http://www.w3.org/2000/svg">
<path d="M55.7551 26.1217C57.0058 27.608 57.5635 29.3814 57.5705 31.2737C57.5891 34.363 56.6605 37.1607 54.6935 39.5757C53.8255 40.6443 52.7078 41.335 51.4151 41.7737C50.6568 42.028 49.8985 41.888 49.1401 41.7433C48.9511 41.7013 48.7691 41.6453 48.5708 41.5987C48.4868 43.1107 48.3655 44.555 48.3398 45.9993C48.2908 49.35 47.1685 51.3964 45.1968 54.054C44.2075 55.384 43.1575 55.7364 42.0351 56.9497C40.6095 58.5037 38.9878 59.8384 37.1491 60.8884C36.0688 61.5067 34.9511 61.908 33.6888 61.824C32.4451 61.74 31.1711 61.775 29.9555 61.5277C27.6198 61.0494 25.4895 60.0413 23.9471 58.1467C22.3628 56.2053 21.7795 55.7947 22.1131 53.3144C22.4048 51.1234 22.2158 48.9557 21.9241 46.7973C21.8938 46.5617 21.7841 46.3353 21.7188 46.1183C18.2655 45.444 15.9415 43.624 14.7935 40.4063C14.0655 38.367 13.9325 36.2974 14.6838 34.2347C14.8775 33.7074 15.1575 33.208 15.4305 32.718C15.8855 31.8617 16.5295 31.2247 17.5725 31.115C17.5048 30.0417 17.3531 28.9964 17.3835 27.958C17.4815 24.5537 17.8991 21.196 19.0635 17.969C19.2221 17.5374 19.2385 17.143 19.1615 16.6833C19.0821 16.191 19.1241 15.6217 19.3015 15.148C19.7331 13.958 20.3398 12.8777 21.5461 12.2663C21.8121 12.1333 21.9941 11.823 22.2018 11.5873C22.4678 11.284 22.6638 10.878 22.9905 10.682C23.6998 10.2573 24.1688 9.63202 24.6775 9.00202C25.9095 7.47368 28.8098 6.27202 31.4255 7.12602C31.8805 7.27768 32.3355 7.42235 32.7251 7.55068C32.8838 7.45968 32.9678 7.43635 33.0168 7.38035C34.3281 5.89402 36.1435 5.55335 38.0358 6.56602C38.8805 7.01402 39.6201 7.65802 40.4881 8.26468C40.4345 8.27168 40.5301 8.28802 40.5861 8.24602C41.9278 7.34768 43.3838 7.57868 44.8048 8.78502C45.5211 9.39168 46.1045 10.115 46.4008 11.0903C46.7228 11.0903 47.0495 11.151 47.3411 11.0787C49.3431 10.5863 50.9648 12.026 51.4501 13.6033C51.7348 14.5507 51.7418 15.5144 51.5785 16.485C51.5061 16.9214 51.3895 17.346 51.2821 17.85C51.5248 17.948 51.7791 18.0553 52.0358 18.1463C52.8921 18.4613 53.3051 19.0984 53.3821 19.978C53.4498 20.7924 53.4125 21.5974 53.0671 22.358C52.9225 22.6917 52.7825 23.0254 52.6495 23.366C52.5095 23.73 52.5165 24.0754 52.7941 24.416C53.0788 24.507 53.3821 24.6167 53.6925 24.7007C54.5418 24.9434 55.1975 25.466 55.7551 26.1217Z" fill="white"/>
<path d="M55.7551 26.1217C55.1974 25.466 54.5418 24.9434 53.6924 24.7007C53.3821 24.6167 53.0788 24.507 52.7941 24.416C52.5141 24.0754 52.5094 23.73 52.6494 23.366C52.7824 23.0254 52.9224 22.6917 53.0671 22.358C53.4124 21.5997 53.4498 20.7924 53.3821 19.978C53.3028 19.0984 52.8898 18.4614 52.0358 18.1464C51.7814 18.0554 51.5271 17.9457 51.2821 17.85C51.3918 17.346 51.5061 16.9214 51.5784 16.485C51.7418 15.5144 51.7371 14.5484 51.4501 13.6034C50.9648 12.026 49.3431 10.5864 47.3411 11.0787C47.0494 11.151 46.7228 11.0904 46.4008 11.0904C46.1044 10.1127 45.5211 9.39171 44.8048 8.78505C43.3838 7.57638 41.9278 7.34771 40.5861 8.24605C40.5324 8.28805 40.4344 8.26938 40.4881 8.26471C39.6201 7.65805 38.8804 7.01405 38.0358 6.56605C36.1411 5.55338 34.3281 5.89171 33.0168 7.38038C32.9678 7.43405 32.8838 7.45971 32.7251 7.55071C32.3378 7.42238 31.8804 7.27771 31.4254 7.12605C28.8098 6.26971 25.9094 7.47138 24.6774 9.00205C24.1688 9.63205 23.6998 10.2574 22.9904 10.682C22.6638 10.8757 22.4678 11.2817 22.2018 11.5874C21.9964 11.823 21.8144 12.1334 21.5461 12.2664C20.3374 12.88 19.7308 13.9604 19.3014 15.148C19.1264 15.6217 19.0821 16.191 19.1614 16.6834C19.2408 17.1454 19.2221 17.5397 19.0634 17.969C17.8991 21.1984 17.4791 24.5537 17.3834 27.958C17.3531 28.9964 17.5048 30.0394 17.5724 31.115C16.5294 31.2247 15.8854 31.8617 15.4304 32.718C15.1574 33.2104 14.8774 33.7074 14.6838 34.2347C13.9301 36.2974 14.0654 38.367 14.7934 40.4064C15.9414 43.624 18.2654 45.444 21.7188 46.1184C21.7864 46.3377 21.8938 46.5617 21.9241 46.7974C22.2158 48.958 22.4024 51.1257 22.1131 53.3144C21.7794 55.797 22.3628 56.2054 23.9471 58.1467C25.4894 60.0414 27.6198 61.047 29.9554 61.5277C31.1688 61.7774 32.4428 61.74 33.6888 61.824C34.9511 61.908 36.0688 61.509 37.1491 60.8884C38.9878 59.8384 40.6094 58.5037 42.0351 56.9497C43.1574 55.7364 44.2074 55.3817 45.1968 54.054C47.1684 51.3964 48.2908 49.35 48.3398 45.9994C48.3631 44.555 48.4844 43.1107 48.5708 41.5987C48.7714 41.6477 48.9534 41.7014 49.1401 41.7434C49.8984 41.888 50.6568 42.028 51.4151 41.7737C52.7078 41.3374 53.8254 40.6444 54.6934 39.5757C56.6604 37.1607 57.5891 34.363 57.5704 31.2737C57.5634 29.379 57.0058 27.608 55.7551 26.1217ZM20.8648 44.6087C19.8521 44.2027 18.8744 43.6917 18.0741 42.952C16.4174 41.4284 15.6031 39.5104 15.5074 37.2657C15.4351 35.6814 15.7571 34.2184 16.6484 32.8954C16.8538 32.585 17.0614 32.2817 17.5841 32.41C17.6681 33.3994 18.6411 34.1157 18.5431 35.287C18.1371 35.105 17.7848 34.923 17.4208 34.783C17.1291 34.6687 16.8561 34.7457 16.6624 35.0024C16.4431 35.287 16.5714 35.5414 16.7954 35.749C17.1711 36.1014 17.4884 36.4957 18.0158 36.708C18.8044 37.03 19.0121 37.7464 18.7998 38.6144C18.6248 39.312 18.5081 40.0284 18.4288 40.7447C18.3798 41.1997 18.5571 41.636 18.9211 41.9277C19.0424 42.0304 19.3038 42.0257 19.4671 41.9697C19.5581 41.9394 19.6304 41.6967 19.6258 41.5567C19.5954 41.2417 19.4858 40.9267 19.4741 40.6094C19.4671 40.4507 19.6024 40.2874 19.6934 40.075C19.8638 40.215 19.9968 40.2687 20.0271 40.3597C20.5311 41.72 21.0164 43.078 21.5438 44.5527C21.2288 44.583 21.0211 44.667 20.8694 44.6064L20.8648 44.6087ZM36.1458 47.1147C35.6371 46.6527 35.0281 46.55 34.4821 46.956C33.6374 47.586 32.8558 47.2524 32.1278 46.8464C31.7824 46.6527 31.4908 46.5804 31.1268 46.5547C30.1491 46.494 29.9251 46.305 29.7501 45.3647C29.5494 44.3334 29.4094 43.288 29.2041 42.2637C29.0291 41.342 29.2834 40.5277 29.9321 39.9397C30.5014 39.424 30.7628 38.878 30.6111 38.1734C30.9751 37.828 31.2971 37.6204 31.8244 37.7557C31.9644 38.6167 32.3891 39.3704 33.1474 39.9047C33.2384 39.9724 33.3178 40.0867 33.3481 40.1964C33.6584 41.216 34.5124 41.4284 35.3688 41.4097C37.0254 41.3677 38.6821 41.258 40.3201 41.0527C40.9268 40.9734 41.5031 40.5674 42.0561 40.2524C42.2008 40.1684 42.2801 39.8277 42.2498 39.627C42.2124 39.3424 41.9161 39.3237 41.6664 39.3354C41.5521 39.3424 41.4238 39.3727 41.3141 39.4147C40.0588 39.9304 38.7218 39.9677 37.3941 40.0587C36.7501 40.1007 36.1084 40.1917 35.4644 40.222C34.8088 40.2594 34.4634 40.0027 34.3421 39.3774C34.1904 38.612 34.1601 37.8537 34.5428 37.1257C34.8228 36.5984 35.2171 36.2087 35.7934 36.0524C37.6741 35.525 39.5921 35.3174 41.5474 35.4947C41.6618 35.5064 41.7784 35.567 41.9114 35.6044C42.3431 36.1807 42.3734 36.8737 42.4038 37.5527C42.4154 37.9167 42.3804 38.2807 42.3804 38.6447C42.3804 39.1907 42.5391 39.4707 42.8424 39.5197C43.1691 39.5687 43.4071 39.3307 43.5098 38.8104C43.5774 38.4954 43.6731 38.1664 43.6381 37.8584C43.5401 37.058 43.4374 36.2507 43.2204 35.4784C43.0314 34.811 42.5228 34.4097 41.7691 34.4167C40.0401 34.44 38.2971 34.2884 36.5984 34.7924C36.3674 34.86 36.1318 34.9207 35.8938 34.944C34.9464 35.0584 34.1998 35.49 33.7261 36.316C33.4344 36.8247 32.9374 37.0207 32.5011 36.8504C31.7428 36.5704 31.0801 36.7967 30.2308 37.1C30.3638 36.8154 30.4058 36.6824 30.4851 36.5657C31.2014 35.455 31.3228 34.1997 31.2318 32.949C31.1034 31.22 30.8444 29.4957 30.6368 27.7714C30.6181 27.6127 30.6298 27.4377 30.5574 27.3047C30.4898 27.1834 30.3218 27.0317 30.2168 27.0434C30.0954 27.055 29.9251 27.2254 29.9018 27.3467C29.8528 27.6617 29.8481 27.9907 29.8714 28.3127C29.9321 29.12 29.9928 29.9274 30.1071 30.7277C30.2891 31.983 30.1491 33.222 30.0161 34.4727C29.9438 35.147 29.5984 35.6674 29.1784 36.05C28.5601 35.8984 28.0304 35.686 27.4914 35.6487C26.2898 35.5577 25.0694 35.4784 23.8678 35.546C22.4771 35.6184 21.4224 36.316 20.8274 37.6227C20.7971 37.695 20.7551 37.7674 20.7131 37.835C20.6944 37.8584 20.6524 37.877 20.6221 37.8957C20.5614 37.8584 20.4588 37.828 20.4471 37.7814C19.8591 35.476 19.2268 33.1754 18.7111 30.8514C18.2444 28.7397 18.2864 26.5907 18.6434 24.4604C18.9234 22.827 19.2688 21.2077 19.6141 19.593C19.7354 19.047 19.9664 18.5197 20.1601 17.9434C21.7328 17.542 22.6474 16.3894 23.4314 15.0057C25.2771 15.085 26.7518 14.21 28.1098 12.978C29.6078 13.8997 31.0521 13.524 32.4801 12.8194C32.8674 12.6257 33.2688 12.4437 33.7121 12.243C33.8404 12.432 33.9618 12.5837 34.0644 12.7517C34.8414 14.063 36.0431 14.4877 37.4758 14.294C38.0148 14.2264 38.4838 14.203 38.9924 14.4457C39.6971 14.791 40.4858 14.7724 41.2558 14.7117C41.6501 14.6814 42.0514 14.6277 42.5251 14.5787C42.5974 15.708 42.7748 16.7627 43.4958 17.6564C44.2121 18.5477 45.2854 18.8394 46.2398 19.313C45.6611 21.1906 45.6347 22.8333 46.1604 24.241C46.0018 24.598 45.7964 25.0297 45.6261 25.48C45.1944 26.6094 45.0614 27.755 45.5468 28.896C45.6564 29.1457 45.8198 29.449 46.0391 29.5587C46.5548 29.813 46.6948 30.2214 46.7134 30.737C46.7204 30.8957 46.6901 31.0894 46.7624 31.2107C46.8534 31.3694 47.0168 31.521 47.1801 31.5677C47.2944 31.605 47.5138 31.507 47.5861 31.3974C47.7448 31.1734 47.8404 30.9004 47.9571 30.6437C48.5264 29.393 49.0864 28.1377 49.8938 27.0154C50.1668 26.6327 50.4398 26.3224 50.9251 26.2617C51.0464 26.243 51.1678 26.208 51.2658 26.1404C51.8491 25.746 52.4674 25.704 53.1161 25.935C53.8091 26.1777 54.4624 26.4694 54.9618 27.3677C53.7484 27.076 52.9644 27.6034 52.2668 28.217C50.6521 29.6497 49.5671 31.416 49.0981 33.5394C49.0864 33.6187 49.0561 33.698 49.0444 33.775C48.9954 34.1157 49.0258 34.4307 49.3781 34.601C49.6278 34.7154 49.8331 34.51 49.9848 34.0317C50.0688 33.7657 50.1668 33.509 50.2951 33.145C50.5448 33.3457 50.7384 33.46 50.8784 33.6304C51.0604 33.8427 51.1934 34.097 51.3521 34.335C51.5271 34.5894 51.6134 34.972 52.0381 34.8927C52.3414 34.832 52.4208 34.3047 52.1104 33.824C51.7278 33.2174 51.2494 32.6644 50.7641 32.0227C51.3708 30.7417 52.3531 29.687 53.4591 28.7397C53.8534 28.399 54.2734 28.2847 54.7751 28.6254C55.0854 28.8377 55.2791 28.5274 55.4844 28.2427C56.0724 29.274 56.2731 30.373 56.2731 31.4954C56.2801 33.5114 55.8251 35.4154 54.8591 37.2004C54.2711 38.2807 53.6154 39.277 52.6004 40.005C51.3194 40.9267 49.9918 41.244 48.5404 40.4834C48.1391 39.9304 48.6501 39.032 47.7261 38.633C47.6048 38.8267 47.4344 39.004 47.3808 39.2094C47.3014 39.5197 47.2968 39.8464 47.2781 40.1684C47.1754 42.427 47.0844 44.6904 46.9678 46.9467C46.8698 48.9674 46.2398 49.9147 45.2318 51.639C43.7151 54.2314 41.8578 55.6407 39.5758 57.6124C38.5374 58.5107 37.4338 59.311 36.2064 59.9667C35.2661 60.4754 34.3608 60.774 33.3364 60.1417C32.8278 60.6154 32.2188 60.543 31.6121 60.5127C29.1714 60.3727 27.0411 59.4744 25.2934 57.7944C23.9214 56.4714 23.3381 56.6207 23.3078 54.733C23.2961 54.0097 23.3988 53.2887 23.4711 52.5654C23.6648 50.617 23.5504 48.6757 23.1864 46.7694C22.9204 45.3857 22.4934 44.0324 22.1364 42.6674C22.0641 42.406 21.9918 42.14 21.9008 41.811C23.8421 42.2474 25.7111 41.7434 27.6664 41.762C28.0911 43.5657 28.0118 45.5117 28.9171 47.2897M23.9168 36.6824C24.9598 36.561 26.0098 36.4934 27.0598 36.4514C27.9278 36.414 28.4504 37.0767 28.3034 37.9564C28.2918 38.0357 28.2801 38.115 28.2614 38.192C28.0911 38.8547 27.9208 39.515 27.7341 40.2314C27.2978 40.3224 26.8731 40.4554 26.4414 40.4974C25.5198 40.6 24.5911 40.6677 23.6624 40.7284C22.7408 40.789 22.3278 40.4974 22.0478 39.6247C21.5438 38.0707 22.2904 36.869 23.9168 36.6824Z" fill="black"/>
<path d="M34.557 24.3204C34.3657 24.2107 34.221 24.1384 34.0927 24.0474C33.899 23.9097 33.7123 23.7581 33.458 23.5597C33.5677 23.3007 33.6283 23.0231 33.7847 22.8201C34.424 22.0011 35.2967 21.4924 36.2463 21.1144C37.4527 20.6361 38.708 20.3071 40.0053 20.2534C40.6797 20.2254 41.3703 20.3444 42.04 20.4704C42.5277 20.5614 42.9663 20.8274 43.076 21.3711C43.1507 21.7397 43.4353 21.8751 43.664 22.0944C43.7783 22.2041 43.853 22.4771 43.7947 22.6101C43.7293 22.7571 43.4937 22.9157 43.3303 22.9157C42.8077 22.9204 42.285 22.8597 41.7647 22.8131C41.004 22.7477 40.2433 22.6427 39.4803 22.6124C37.9777 22.5517 36.6173 23.0044 35.376 23.8467C35.1147 24.0241 34.83 24.1641 34.5593 24.3181L34.557 24.3204Z" fill="black"/>
<path d="M28.9709 22.848C28.9523 22.981 28.9569 23.0277 28.9383 23.0603C28.7096 23.4337 28.4786 23.8047 28.2663 24.1453C27.7436 24.2993 27.3446 24.0637 26.9363 23.9167C25.0066 23.219 23.2099 23.506 21.5183 24.619C21.2826 24.773 21.0703 24.969 20.8229 25.102C20.3773 25.34 20.0436 25.0997 20.0529 24.5723C20.0623 24.1103 20.1906 23.6927 20.5243 23.3637C22.5776 21.336 25.5269 20.4307 28.4646 22.2903C28.6863 22.4303 28.8309 22.6917 28.9709 22.848Z" fill="black"/>
<path d="M40.6493 30.8537C40.5349 31.2947 40.4416 31.808 40.2596 32.2887C40.1499 32.5757 39.9283 32.8417 39.6996 33.0517C39.2726 33.4437 38.7593 33.733 38.1736 33.4624C37.6346 33.2127 37.5389 32.6737 37.5203 32.1347C37.4829 31.0334 37.9263 30.0907 38.5843 29.26C39.1303 28.5694 40.0893 28.7584 40.4043 29.596C40.5419 29.9624 40.5606 30.3754 40.6516 30.8514L40.6493 30.8537Z" fill="black"/>
<path d="M39.2748 26.936C41.0202 27.048 42.0608 28.0094 42.8961 29.267C43.0361 29.4794 43.0431 29.771 42.7795 29.897C42.6348 29.9647 42.3641 29.932 42.2358 29.834C41.8228 29.5144 41.4495 29.1387 41.0575 28.791C40.0378 27.8857 38.9062 27.8927 37.8072 28.5414C37.1585 28.924 36.6078 29.4864 36.0548 30.0114C35.5042 30.534 35.2732 30.6694 35.0842 30.4127C34.7925 30.016 35.1075 29.7104 35.3058 29.4444C36.1155 28.35 37.1165 27.4914 38.4582 27.1064C38.7662 27.0177 39.0858 26.9757 39.2748 26.936Z" fill="black"/>
<path d="M28.6185 32.2817C28.5042 33.208 28.2405 33.9267 27.7575 34.5357C27.3305 35.0747 26.7892 35.0654 26.2968 34.5824C25.2445 33.5464 25.6388 31.3764 26.9922 30.7767C27.4868 30.5574 27.9768 30.674 28.2358 31.1664C28.4365 31.549 28.5228 31.99 28.6185 32.2817Z" fill="black"/>
<path d="M29.2763 30.4361C29.1783 30.5131 29.05 30.6787 28.8913 30.7207C28.7606 30.7557 28.5716 30.6787 28.441 30.5971C27.6453 30.1024 26.754 30.0977 25.8673 30.0861C24.367 30.0651 23.429 30.9844 22.6193 32.0927C22.4793 32.2864 22.4186 32.5407 22.2693 32.7227C22.162 32.8557 21.9566 33.0074 21.812 32.9911C21.511 32.9607 21.4806 32.6737 21.5133 32.4311C21.539 32.2351 21.6113 32.0367 21.7046 31.8617C23.2166 29.0757 25.5616 28.2241 28.5203 29.4747C29.0383 29.6941 29.2483 29.9764 29.2763 30.4337V30.4361Z" fill="black"/>
<path d="M41.7133 26.1731C41.1813 26.2454 40.948 26.3037 40.717 26.3037C40.2736 26.3037 39.828 26.2687 39.3846 26.2431C37.9823 26.1614 36.7666 26.6164 35.6956 27.5031C35.5113 27.6571 35.3153 27.8041 35.1053 27.9161C35.026 27.9581 34.8556 27.9207 34.788 27.8577C34.7156 27.7924 34.6596 27.6221 34.697 27.5427C34.7973 27.3304 34.9186 27.1064 35.089 26.9477C36.7993 25.3494 38.792 24.8967 41.0296 25.5431C41.214 25.5967 41.347 25.8277 41.7133 26.1731Z" fill="black"/>
<path d="M25.9466 27.4844C26.1216 27.5404 26.2546 27.5521 26.3409 27.6197C26.4226 27.6827 26.4786 27.8041 26.5019 27.9091C26.5159 27.9697 26.4599 28.0864 26.4039 28.1121C26.2266 28.1984 26.0399 28.2754 25.8463 28.3221C24.4369 28.6557 23.2096 29.2974 22.2646 30.4197C22.1876 30.5107 22.1013 30.6251 21.9963 30.6554C21.8563 30.6974 21.6603 30.7207 21.5576 30.6507C21.4619 30.5854 21.4223 30.3871 21.4199 30.2447C21.4199 30.1374 21.4946 30.0137 21.5669 29.9181C22.6776 28.4387 24.2316 27.7784 25.9443 27.4821L25.9466 27.4844Z" fill="black"/>
<path d="M31.8479 54.0983C32.3122 54.138 32.7976 54.1683 33.2782 54.229C33.4742 54.2547 33.6819 54.3153 33.8429 54.4227C33.9572 54.4973 34.0692 54.6863 34.0576 54.8123C34.0459 54.936 33.8872 55.132 33.7729 55.146C32.6786 55.2907 31.5959 55.223 30.5552 54.8333C30.4432 54.7913 30.2962 54.5347 30.3336 54.4623C30.4082 54.3107 30.5856 54.138 30.7419 54.1147C31.0989 54.0633 31.4676 54.0983 31.8502 54.0983H31.8479Z" fill="black"/>
<path d="M28.9402 47.5067C29.8619 48.342 31.2362 48.615 32.4496 48.5917C33.6629 48.5683 34.9182 48.1997 35.9589 47.5277C36.5889 47.1193 36.0382 46.172 35.3709 46.5197C34.1575 47.1543 32.7202 47.0447 31.3996 46.9607V48.1273C32.3259 48.069 33.2522 48.0107 34.1785 47.9523C34.9415 47.9033 35.8376 47.9523 36.4139 47.3573C36.9366 46.8183 36.1129 45.9923 35.5879 46.5313C35.4339 46.69 35.2075 46.7133 34.9952 46.732C34.6079 46.7623 34.2182 46.781 33.8285 46.8067C33.0165 46.858 32.2069 46.9093 31.3949 46.9607C30.6459 47.0073 30.6436 48.0783 31.3949 48.1273C32.9442 48.2253 34.5402 48.2673 35.9542 47.5277L35.3662 46.5197C34.5192 47.0657 33.5486 47.3853 32.5406 47.4227C31.6282 47.4553 30.4662 47.3223 29.7616 46.683C29.2062 46.179 28.3779 47.0027 28.9356 47.509L28.9402 47.5067Z" fill="black"/>
<path d="M29.1084 46.6316C29.7174 47.5206 30.9378 47.761 31.9481 47.7936C32.9584 47.8263 34.1578 47.7773 35.1401 47.411C35.4341 47.3013 35.6371 47.0166 35.5484 46.6923C35.4714 46.4076 35.1284 46.1743 34.8298 46.284C34.0084 46.5896 33.0868 46.6293 32.2188 46.6293C31.8244 46.6293 31.4324 46.606 31.0474 46.5103C30.7534 46.4356 30.2984 46.3073 30.1164 46.0413C29.9344 45.7753 29.6031 45.6656 29.3184 45.8313C29.0618 45.9806 28.9311 46.368 29.1084 46.6293V46.6316Z" fill="black"/>
<path d="M28.1025 51.6016C31.5652 52.3296 35.2938 53.0226 38.6048 51.3566C39.2768 51.0183 38.6865 50.0126 38.0168 50.3486C35.0185 51.856 31.5325 51.1303 28.4128 50.4746C28.1048 50.4093 27.7828 50.5656 27.6942 50.883C27.6148 51.1723 27.7922 51.5363 28.1025 51.6016Z" fill="black"/>
</svg>
