<svg width="70" height="70" viewBox="0 0 70 70" fill="none" xmlns="http://www.w3.org/2000/svg">
<path d="M13.7643 50.4653C13.468 52.1126 14.0536 53.613 14.588 55.0993C15.701 58.156 18.0693 59.591 21.1633 59.976C21.7046 60.046 22.2763 59.8546 22.9716 59.7636C22.9203 60.053 22.946 60.3493 22.8176 60.522C22.407 61.0936 21.7373 61.2103 21.126 61.1333C17.857 60.7086 15.0826 59.5373 13.7643 56.1796C13.2183 54.7843 12.768 53.368 12.7143 51.863C12.6956 51.3473 12.817 50.813 12.9523 50.3113C12.992 50.1643 13.307 50.0546 13.5123 50.022C13.5776 50.015 13.79 50.33 13.7643 50.4653Z" fill="white"/>
<path d="M62.7853 28.6976C62.818 29.2763 62.825 29.869 62.7083 30.429C62.2183 32.8347 61.3433 35.0886 59.5606 36.8386C58.8583 37.534 58.7043 38.2666 58.7556 39.1813C58.884 41.4586 59.3273 43.68 59.85 45.892C60.333 47.9313 60.4683 49.9916 60.102 52.0683C59.7473 54.089 58.8933 55.832 57.2973 57.1573C56.0746 58.1793 54.845 59.1967 53.6036 60.1883C53.347 60.3867 53.011 60.5103 52.689 60.5873C52.5536 60.62 52.304 60.4847 52.22 60.3493C52.143 60.221 52.136 59.9503 52.227 59.829C52.4207 59.5583 52.6773 59.3343 52.9293 59.108C53.907 58.24 54.873 57.3696 55.8693 56.5273C58.0253 54.6933 58.8233 52.2876 58.7836 49.5576C58.765 48.405 58.611 47.2477 58.4173 46.109C58.0323 43.7407 57.5937 41.3793 57.477 38.9526C56.6603 43.1153 55.8367 47.2546 54.684 51.3146C54.922 51.3006 55.1856 51.282 55.5216 51.2563C55.573 51.4943 55.664 51.681 55.6383 51.849C55.2136 54.705 53.7646 56.882 51.2237 58.289C50.547 58.6623 49.847 58.9913 49.1376 59.2993C48.8927 59.402 48.5193 59.493 48.314 59.3763C47.761 59.073 47.292 59.318 46.788 59.4533C46.228 59.5956 45.668 59.7357 45.108 59.8967C43.5003 60.3657 41.93 60.123 40.4553 59.4463C39.2723 58.905 38.164 58.212 37.0323 57.568C36.743 57.407 36.4863 57.2086 36.2273 57.0336C34.174 59.073 32.893 59.3506 29.813 58.45C29.645 59.3646 28.9636 59.647 28.1516 59.717C25.7763 59.9293 23.7766 59.1383 22.1666 57.393C21.035 56.1633 20.293 54.698 20.0036 53.0436C19.908 52.4907 19.985 51.898 20.062 51.331C20.0806 51.163 20.3653 51.0346 20.531 50.8876C20.6663 51.0556 20.93 51.2353 20.916 51.3963C20.832 52.78 21.399 53.9443 22.0686 55.076C23.2516 57.071 24.99 58.2423 27.314 58.5247C28.0093 58.6087 28.6533 58.569 29.225 58.016C28.735 57.393 28.2333 56.812 27.8156 56.175C27.4493 55.615 27.16 54.9967 26.8753 54.3853C26.7586 54.1333 26.7143 53.8253 26.7283 53.5476C26.7353 53.3867 26.8963 53.1626 27.0363 53.109C27.1646 53.0646 27.4283 53.1533 27.5263 53.277C27.706 53.4963 27.79 53.7856 27.944 54.0306C28.3873 54.719 28.826 55.4143 29.309 56.077C29.9133 56.8937 30.7696 57.3183 31.7543 57.498C33.292 57.7686 33.9546 57.5423 35.3266 56.231C33.4856 54.467 31.7357 52.654 30.59 50.2973C29.4887 48.02 28.8073 45.626 28.2216 43.0453C27.8366 43.778 27.5333 44.415 27.1716 45.0146C26.761 45.6913 26.2453 46.3657 25.3446 46.1463C24.521 45.948 24.3343 45.1687 24.213 44.4407C24.122 43.8736 24.1103 43.288 24.059 42.6137C23.8466 42.4713 23.59 42.259 23.2936 42.119C21.448 41.2113 20.2953 39.7693 19.7796 37.7696C19.2453 35.7116 19.1356 33.67 19.7026 31.612C20.244 29.6566 21.5693 28.357 23.3636 27.5636C24.689 26.978 26.0213 27.1646 27.174 28.1096C27.6896 28.5343 28.1516 29.029 28.686 29.5376C28.7116 28.308 28.693 27.111 28.777 25.928C28.8423 25.0646 28.9823 24.2036 29.2016 23.366C29.337 22.8713 29.666 22.421 29.9413 21.9706C30.0953 21.7256 30.3333 21.5016 30.6623 21.6556C31.01 21.8236 30.919 22.1246 30.8046 22.4023C30.7346 22.582 30.632 22.75 30.5666 22.9296C29.89 24.822 29.7616 27.7246 30.289 29.8526C31.8196 27.4586 33.5323 25.2583 34.0923 22.4583C33.964 22.407 33.9196 22.3626 33.873 22.3673C33.5183 22.4256 33.1263 22.7523 32.8183 22.3346C32.4893 21.903 32.8113 21.518 33.0166 21.1446C33.061 21.0676 33.1333 20.9906 33.2033 20.9253C35.0816 19.2966 36.3113 17.1406 37.8116 15.225C38.332 15.1853 38.43 15.5073 38.3576 15.876C38.178 16.7906 37.772 17.6143 37.212 18.354C36.9296 18.7273 36.652 19.1006 36.26 19.628C37.303 19.0936 38.1336 18.6246 38.892 17.9806C40.6676 16.4803 41.44 14.532 41.7737 12.3246C41.8903 11.571 41.3887 11.0623 41.1227 10.3553C40.712 10.3996 40.2803 10.4136 39.8743 10.5093C37.0113 11.2233 34.097 11.5056 31.1616 11.6876C30.345 11.732 29.533 11.8416 28.7233 11.977C27.2626 12.229 25.963 12.859 24.836 13.811C23.233 15.162 21.9076 16.751 20.8903 18.592C20.0596 20.104 19.6606 21.7326 19.6933 23.457C19.7003 24.2363 19.7773 25.0016 19.3596 25.7226C19.2243 25.9536 19.25 26.2826 19.2056 26.565C18.935 28.2823 18.711 30.0066 18.368 31.7123C17.9876 33.5836 17.024 35.2263 16.0323 36.827C14.539 39.2536 12.957 41.6267 11.4893 44.065C10.7496 45.2993 10.0473 46.5873 9.54565 47.9383C8.50965 50.764 8.71498 53.529 10.3296 56.1353C10.8966 57.05 11.6106 57.827 12.607 58.2983C12.7796 58.3823 12.9733 58.4593 13.1016 58.5876C13.23 58.709 13.398 58.9423 13.3536 59.0566C13.2883 59.255 13.0713 59.5326 12.9103 59.5326C12.4996 59.5326 12.0353 59.493 11.669 59.3203C9.77665 58.4056 8.60531 56.8237 7.89131 54.9243C6.83665 52.1243 7.00931 49.3336 8.15498 46.592C8.86198 44.8863 9.86765 43.3486 10.878 41.818C12.236 39.7646 13.6266 37.7323 14.9823 35.672C16.352 33.593 17.2853 31.3553 17.6843 28.8633C18.025 26.7143 18.3213 24.577 18.431 22.3953C18.578 19.4226 19.635 16.751 21.7 14.525C22.722 13.4236 23.7976 12.3876 25.1113 11.6293C26.7913 10.6633 28.6183 10.2596 30.5293 10.2713C33.2453 10.29 35.9286 9.94931 38.605 9.56898C39.4146 9.45231 40.2126 9.26098 41.0176 9.10465C44.1256 8.49331 47.0913 8.85965 49.826 10.5C51.7253 11.6316 53.1907 13.2346 54.3946 15.0756C56.196 17.843 57.1177 20.9253 57.5797 24.1616C57.6193 24.451 57.6497 24.7403 57.701 25.025C57.7197 25.109 57.792 25.186 57.8433 25.277C57.9273 25.291 58.037 25.354 58.0953 25.3213C60.3283 24.2153 62.657 26.7423 62.7807 28.6813L62.7853 28.6976Z" fill="white"/>
<path d="M12.3434 58.7977C12.3434 58.7977 19.0494 61.6724 21.8097 60.879C24.57 60.0857 28.9147 59.2457 28.9147 59.2457L29.7174 58.156C29.7174 58.156 32.935 58.8 36.7967 56.2264L49.0234 57.5144C49.0234 57.5144 52.241 60.732 53.5267 60.088C54.8124 59.444 58.149 54.7564 58.4757 54.1847C58.8024 53.613 60.6807 47.5697 58.7207 44.1397C56.7607 40.7097 58.149 37.2797 58.149 37.2797L56.7607 25.767L49.0024 11.396L41.8974 9.84436L30.7114 11.151C30.7114 11.151 22.218 12.0494 20.1787 18.256C18.137 24.4627 18.382 27.9744 18.382 27.9744C18.382 27.9744 16.667 36.631 13.8087 39.1604C10.9504 41.692 7.35703 50.5097 7.9287 52.2247C8.50037 53.9397 10.5537 58.7604 12.3434 58.8V58.7977Z" fill="white"/>
<path d="M62.7085 30.4267C62.8252 29.8667 62.8182 29.274 62.7855 28.6954C62.6642 26.7587 60.3332 24.2294 58.1002 25.3354C58.0419 25.368 57.9322 25.3027 57.8482 25.291C57.7969 25.2 57.7269 25.123 57.7059 25.039C57.6545 24.7567 57.6219 24.4674 57.5845 24.1757C57.1202 20.9394 56.2009 17.857 54.3995 15.0897C53.1955 13.2487 51.7302 11.648 49.8309 10.514C47.0962 8.87369 44.1305 8.50735 41.0225 9.11869C40.2175 9.27269 39.4195 9.46635 38.6099 9.58302C35.9335 9.96335 33.2502 10.304 30.5342 10.2854C28.6232 10.2714 26.7962 10.6774 25.1162 11.6434C23.8025 12.4017 22.7292 13.4377 21.7049 14.539C19.6399 16.765 18.5829 19.4367 18.4359 22.4094C18.3262 24.591 18.0299 26.726 17.6892 28.8774C17.2902 31.367 16.3569 33.607 14.9872 35.686C13.6292 37.744 12.2385 39.7787 10.8829 41.832C9.87253 43.3627 8.8692 44.9004 8.15986 46.606C7.0142 49.3477 6.84153 52.1407 7.8962 54.9384C8.6102 56.8377 9.78153 58.4197 11.6739 59.3344C12.0402 59.507 12.5045 59.5467 12.9152 59.5467C13.0762 59.5467 13.2955 59.269 13.3585 59.0707C13.4029 58.954 13.2372 58.723 13.1065 58.6017C12.9782 58.4734 12.7845 58.3964 12.6119 58.3124C11.6155 57.8434 10.8992 57.064 10.3345 56.1494C8.71986 53.543 8.51453 50.7757 9.55053 47.9524C10.0522 46.6014 10.7545 45.3134 11.4942 44.079C12.9619 41.6407 14.5439 39.2654 16.0372 36.841C17.0289 35.238 17.9925 33.5977 18.3729 31.7264C18.7135 30.0207 18.9399 28.2964 19.2105 26.579C19.2549 26.2967 19.2292 25.9677 19.3645 25.7367C19.7822 25.0157 19.7052 24.2504 19.6982 23.471C19.6655 21.7467 20.0645 20.118 20.8952 18.606C21.9125 16.765 23.2379 15.176 24.8409 13.825C25.9679 12.873 27.2675 12.243 28.7282 11.991C29.5379 11.8557 30.3499 11.746 31.1665 11.7017C34.1019 11.522 37.0162 11.2374 39.8792 10.5234C40.2852 10.4277 40.7169 10.4137 41.1275 10.3694C41.3912 11.0764 41.8929 11.585 41.7785 12.3387C41.4449 14.546 40.6725 16.4967 38.8969 17.9947C38.1385 18.6387 37.3079 19.1077 36.2649 19.642C36.6569 19.1147 36.9345 18.7414 37.2169 18.368C37.7769 17.6284 38.1829 16.8047 38.3625 15.89C38.4325 15.5237 38.3369 15.2017 37.8165 15.239C36.3162 17.157 35.0889 19.313 33.2082 20.9394C33.1382 21.0047 33.0659 21.0817 33.0215 21.1587C32.8162 21.532 32.4942 21.917 32.8232 22.3487C33.1312 22.7664 33.5255 22.4397 33.8779 22.3814C33.9222 22.3744 33.9689 22.421 34.0972 22.4724C33.5372 25.2724 31.8269 27.4727 30.2939 29.8667C29.7665 27.7364 29.8949 24.8337 30.5715 22.9437C30.6369 22.764 30.7395 22.596 30.8095 22.4164C30.9262 22.1387 31.0149 21.8377 30.6672 21.6697C30.3382 21.5157 30.1002 21.7397 29.9462 21.9847C29.6685 22.435 29.3419 22.8854 29.2065 23.38C28.9872 24.2177 28.8472 25.0787 28.7819 25.942C28.6979 27.125 28.7165 28.322 28.6909 29.5517C28.1565 29.043 27.6945 28.5484 27.1789 28.1237C26.0262 27.1787 24.6962 26.992 23.3685 27.5777C21.5742 28.3687 20.2465 29.6684 19.7075 31.626C19.1405 33.684 19.2502 35.7257 19.7845 37.7837C20.3002 39.7857 21.4505 41.2254 23.2985 42.133C23.5949 42.2754 23.8515 42.4877 24.0639 42.6277C24.1152 43.3044 24.1292 43.89 24.2179 44.4547C24.3392 45.1827 24.5259 45.9597 25.3495 46.1604C26.2502 46.3797 26.7659 45.703 27.1765 45.0287C27.5359 44.4314 27.8392 43.7944 28.2265 43.0594C28.8122 45.64 29.4935 48.034 30.5949 50.3114C31.7405 52.6657 33.4905 54.481 35.3315 56.245C33.9619 57.5587 33.2992 57.7827 31.7592 57.512C30.7745 57.3324 29.9182 56.9077 29.3139 56.091C28.8309 55.4284 28.3945 54.733 27.9489 54.0447C27.7949 53.7997 27.7109 53.5104 27.5312 53.291C27.4355 53.1697 27.1719 53.0787 27.0412 53.123C26.8989 53.1744 26.7379 53.4007 26.7332 53.5617C26.7192 53.8394 26.7659 54.1474 26.8802 54.3994C27.1625 55.0107 27.4519 55.629 27.8205 56.189C28.2382 56.826 28.7399 57.4047 29.2299 58.03C28.6582 58.583 28.0142 58.6227 27.3189 58.5387C24.9949 58.2564 23.2589 57.085 22.0735 55.09C21.4039 53.9584 20.8392 52.7917 20.9209 51.4104C20.9349 51.2494 20.6689 51.0697 20.5359 50.9017C20.3679 51.0487 20.0855 51.1794 20.0669 51.345C19.9899 51.912 19.9129 52.5024 20.0085 53.0577C20.2979 54.712 21.0375 56.1797 22.1715 57.407C23.7792 59.15 25.7812 59.9434 28.1565 59.731C28.9662 59.661 29.6499 59.3764 29.8179 58.464C32.9002 59.3647 34.1812 59.0894 36.2322 57.0477C36.4889 57.2204 36.7479 57.421 37.0372 57.582C38.1689 58.226 39.2772 58.9214 40.4602 59.4604C41.9349 60.137 43.5029 60.3797 45.1129 59.9107C45.6729 59.7497 46.2329 59.6074 46.7929 59.4674C47.2945 59.332 47.7635 59.087 48.3189 59.3904C48.5242 59.507 48.8975 59.416 49.1425 59.3134C49.8495 59.0054 50.5519 58.6764 51.2285 58.303C53.7695 56.8937 55.2185 54.719 55.6432 51.863C55.6689 51.695 55.5779 51.5084 55.5265 51.2704C55.1929 51.296 54.9292 51.3147 54.6889 51.3287C55.8415 47.2687 56.6652 43.1317 57.4819 38.9667C57.5985 41.3934 58.0349 43.7547 58.4222 46.123C58.6159 47.2617 58.7699 48.4214 58.7885 49.5717C58.8282 52.2994 58.0302 54.7074 55.8742 56.5414C54.8779 57.3837 53.9119 58.254 52.9342 59.122C52.6822 59.3484 52.4255 59.5724 52.2319 59.843C52.1409 59.9644 52.1479 60.235 52.2249 60.3634C52.3089 60.4987 52.5585 60.634 52.6939 60.6014C53.0159 60.5244 53.3495 60.403 53.6085 60.2024C54.8499 59.2107 56.0795 58.1957 57.3022 57.1714C58.8982 55.846 59.7545 54.103 60.1069 52.0824C60.4732 50.0034 60.3379 47.9454 59.8549 45.906C59.3345 43.6917 58.8889 41.4727 58.7605 39.1954C58.7092 38.2807 58.8632 37.548 59.5655 36.8527C61.3482 35.1027 62.2232 32.851 62.7132 30.443L62.7085 30.4267ZM25.8745 44.3847C25.3402 44.0767 25.5409 43.575 25.3845 42.924C25.8605 43.0267 26.1172 43.078 26.4065 43.1364C26.5162 43.6894 26.2852 44.0557 25.8722 44.3847H25.8745ZM28.2312 41.9464C27.9489 41.5917 27.8065 41.3677 27.6199 41.188C27.4589 41.02 27.2465 40.8987 26.9899 40.705C26.7192 40.9034 26.4625 41.09 26.0449 41.3934C24.0429 41.0084 22.3582 40.0494 21.5719 37.828C20.9605 36.0967 20.8695 34.321 21.1612 32.5454C21.4319 30.8584 22.4865 29.6754 24.0055 28.9427C24.8805 28.525 25.7229 28.7957 26.4625 29.2974C26.8545 29.561 27.2022 29.9344 27.4799 30.3194C28.4832 31.7474 28.6955 33.3947 28.6442 35.1447C28.3875 34.7597 28.1495 34.3724 27.8789 33.999C27.2815 33.1754 26.6749 32.34 25.7042 31.934C25.1769 31.7147 24.5982 31.5864 24.0312 31.528C23.8259 31.5024 23.4712 31.7404 23.3755 31.9457C23.2145 32.2794 23.5435 32.466 23.8259 32.5314C25.0159 32.802 25.9165 33.4834 26.6375 34.4424C26.7472 34.5847 26.8172 34.7644 26.9339 34.9697C26.5675 35.182 26.2269 35.3547 25.9119 35.567C24.9342 36.2227 24.3929 37.163 24.2249 38.3157C24.1852 38.5467 24.1805 38.8314 24.2902 39.018C24.4185 39.2444 24.6565 39.501 24.8875 39.5524C25.2282 39.6224 25.3635 39.2887 25.3962 38.9854C25.4989 38.0964 25.7625 37.2937 26.4719 36.687C26.9292 36.295 27.3539 35.9474 27.9839 36.456C28.1309 36.5727 28.4995 36.4304 28.7165 36.4117C28.5695 38.129 28.4085 39.9304 28.2335 41.9464H28.2312ZM53.7182 53.9024C53.7042 53.942 53.6925 53.9724 53.6855 54.012C53.6715 54.019 53.6669 54.026 53.6529 54.0307C53.4989 54.334 53.3449 54.642 53.1885 54.9454C53.1045 54.495 53.3309 54.2384 53.6529 54.0307C53.6599 54.0167 53.6669 54.005 53.6715 53.991C53.6855 53.9584 53.6972 53.9327 53.7159 53.9C53.7859 53.6224 53.8629 53.333 53.9422 53.0577C53.9865 53.0764 54.0379 53.0904 54.0845 53.109C53.9632 53.3727 53.8325 53.6364 53.7182 53.9V53.9024ZM55.9909 33.9407C55.5405 38.857 54.7169 43.708 53.4172 48.4774C52.9085 50.351 52.4139 52.241 51.2612 53.8114C49.2335 56.56 46.4872 58.1234 43.0315 58.303C42.6139 58.3287 42.1682 58.212 41.7692 58.065C39.8442 57.3627 38.0895 56.3594 36.5565 54.9897C34.9279 53.536 33.3645 52.0287 32.3612 50.0547C30.7465 46.8627 29.6919 43.5494 29.9415 39.907C30.0185 38.703 29.9602 37.4944 29.9555 36.2904C29.9485 35.525 29.9625 34.8227 30.4712 34.1157C30.9355 33.4647 31.1525 32.6224 31.3649 31.8384C31.6215 30.8864 31.9949 30.0114 32.5035 29.1807C33.4625 27.6104 34.2605 25.956 34.8065 24.2014C34.9605 23.6927 35.1285 23.1794 35.1659 22.6567C35.2102 22.1154 35.4109 21.7747 35.8869 21.504C37.4385 20.622 38.9879 19.7284 40.4999 18.781C42.5462 17.507 43.9299 15.6987 44.6882 13.4074C44.7979 13.0667 44.9519 12.7307 45.1572 12.2034C45.4605 12.8404 45.6075 13.3047 45.8712 13.6897C47.0425 15.3884 48.7155 16.2377 50.7222 16.5014C51.2425 16.5667 51.7722 16.6297 52.2995 16.6437C52.4465 16.6507 52.6845 16.4827 52.7312 16.3474C52.7709 16.219 52.6612 15.9484 52.5329 15.8714C52.1269 15.6147 51.6765 15.4327 51.2589 15.19C50.1319 14.5344 49.4902 13.594 49.5859 12.236L49.5789 12.229L49.5649 12.215C48.6385 11.977 48.4005 12.1497 48.4845 12.9944C48.5102 13.2767 48.6012 13.5544 48.6712 13.8367C48.7295 14.063 48.7925 14.287 48.9022 14.7047C47.9875 14.3384 47.3319 13.881 46.9212 13.1857C46.5105 12.4974 46.2259 11.739 45.8992 11.0367C44.7465 11.011 44.1562 11.578 43.8529 12.5487C43.5962 13.3724 43.2555 14.1517 42.5719 14.994C42.7189 14.042 42.9265 13.307 42.9265 12.5674C42.9265 11.8277 42.7212 11.0624 42.5859 10.192C45.1409 9.99835 47.5395 10.4114 49.5672 12.2127C49.5742 12.2127 49.5812 12.2197 49.5859 12.2197V12.2337C50.1529 12.6654 50.7642 13.0504 51.2659 13.552C53.1955 15.477 54.3085 17.857 55.1462 20.6104C54.7402 20.5194 54.4952 20.4564 54.2455 20.4237C52.5072 20.2044 51.1515 20.9907 49.9732 22.1364C49.6395 22.4654 49.6255 22.9274 50.2042 23.289C50.4095 23.1677 50.6359 23.0114 50.8855 22.897C51.6252 22.5564 52.3532 22.1574 53.1302 21.9194C54.2362 21.5787 55.4659 22.253 55.7109 23.387C55.9302 24.416 55.9629 25.4987 56.0399 26.5534C56.0795 27.1204 55.6292 27.4027 55.2232 27.6594C54.8382 27.9044 54.4952 27.769 54.1429 27.4214C54.3295 27.0737 54.5419 26.7587 54.6702 26.404C54.7869 26.096 54.8312 25.753 54.8499 25.4264C54.8569 25.3307 54.7029 25.1697 54.5862 25.13C54.4695 25.0904 54.2969 25.13 54.1872 25.1954C54.0705 25.2607 53.9819 25.3937 53.9165 25.5174C53.3705 26.6444 52.3789 27.209 51.2775 27.6407C50.3885 27.9884 49.4879 28.322 48.4589 28.7094C48.3749 27.7317 48.6969 26.8637 48.7995 25.9817C48.8392 25.648 48.9675 25.319 48.9792 24.99C48.9862 24.843 48.8439 24.605 48.7085 24.5514C48.5662 24.493 48.2909 24.5514 48.1929 24.668C47.9805 24.92 47.8009 25.214 47.6912 25.5244C47.5442 25.9304 47.4929 26.3737 47.3692 26.7867C46.8489 28.5554 46.9959 30.177 48.1275 31.7357C48.8742 32.7577 49.1122 34.027 49.3059 35.2824C49.4342 36.092 49.1775 36.813 48.8882 37.534C48.7342 37.94 48.5079 38.3134 48.3095 38.7054C48.1159 39.0904 48.1415 39.4777 48.4519 39.767C48.8065 40.096 49.1799 39.9024 49.4879 39.6457C50.2275 39.0484 50.6662 38.255 50.9299 37.3544C51.2449 36.2484 51.1165 35.147 50.8599 34.0597C50.7432 33.5907 50.6079 33.1334 50.4935 32.7087C51.9869 30.8234 52.0195 30.758 52.3719 28.777C53.1115 28.5787 53.7742 28.784 54.3855 29.2157C54.9315 29.596 55.4659 29.9997 56.1029 30.471C56.3292 31.5584 56.0889 32.7624 55.9862 33.9454L55.9909 33.9407ZM58.3965 35.9684C58.2495 36.071 58.0885 36.155 57.7992 36.3347C57.7479 35.2147 57.7735 34.244 58.0372 33.2267C58.3709 33.4064 58.6485 33.5674 59.0592 33.7937C59.1362 33.446 59.2319 33.201 59.2202 32.9514C59.2132 32.7787 59.0849 32.592 58.9682 32.4427C58.3755 31.7147 58.5622 31.0077 59.0195 30.3194C59.3789 29.7664 59.7779 29.2904 60.5455 29.7594C60.6482 29.8247 60.9445 29.7267 61.0285 29.6124C61.1195 29.491 61.1382 29.232 61.0729 29.085C60.7835 28.371 60.1652 28.0887 59.4255 28.3827C58.9939 28.5507 58.6159 28.8517 58.1259 29.148C57.9579 28.3687 57.8809 27.706 58.2285 27.069C58.6019 26.3994 59.0919 26.194 59.7919 26.516C60.8535 26.999 61.4205 27.867 61.4392 29.0267C61.4649 30.5457 60.9959 31.962 60.3262 33.306C59.8315 34.3024 59.3229 35.287 58.3965 35.9707V35.9684Z" fill="black"/>
<path d="M22.9741 59.7636C22.9227 60.053 22.9484 60.3493 22.8201 60.522C22.4094 61.0936 21.7398 61.2103 21.1284 61.1333C17.8594 60.7086 15.0851 59.5373 13.7667 56.1796C13.2207 54.7843 12.7704 53.368 12.7167 51.863C12.6981 51.3473 12.8194 50.813 12.9547 50.3113C12.9944 50.1643 13.3094 50.0546 13.5147 50.022C13.5801 50.015 13.7924 50.33 13.7667 50.4653C13.4704 52.1126 14.0561 53.613 14.5904 55.0993C15.7034 58.156 18.0717 59.591 21.1657 59.976C21.7071 60.046 22.2787 59.8546 22.9741 59.7636Z" fill="black"/>
<path d="M43.7595 28.5717C44.1935 28.4224 44.6275 28.2754 45.2179 28.0747C45.2085 28.4177 45.2972 28.7281 45.1805 28.8821C44.8655 29.2974 44.4619 29.6451 44.0699 30.0487C42.8752 29.9414 41.8135 28.8424 40.5862 29.4444C40.3902 30.2214 40.3132 30.9564 40.0122 31.5817C39.7532 32.1207 39.3029 32.6201 38.8222 32.9887C38.0079 33.6141 37.1725 33.1731 37.1352 32.1347C37.1189 31.6657 37.2239 31.1944 37.2729 30.7254C36.8949 30.5294 36.2789 30.9727 36.1529 30.3357C36.0549 29.8411 36.5029 29.5657 36.8482 29.3277C38.1105 28.4574 39.5525 27.8997 41.0505 27.9837C42.2989 28.0537 42.9359 27.4891 43.5005 26.5954C43.6289 26.3947 43.6709 26.1311 43.8202 25.9561C43.9229 25.8347 44.1679 25.7274 44.3055 25.7671C44.4455 25.8091 44.6345 26.0517 44.6182 26.1801C44.5622 26.6024 44.4689 27.0341 44.2985 27.4191C44.1469 27.7621 43.8692 28.0514 43.6475 28.3641C43.6825 28.4341 43.7175 28.5041 43.7549 28.5741L43.7595 28.5717Z" fill="black"/>
<path d="M39.4617 43.1994C39.3333 43.4467 39.2913 43.596 39.1957 43.694C38.841 44.0603 38.477 44.0347 38.281 43.631C38.1993 43.4607 38.12 43.2693 38.1153 43.085C38.1013 42.518 38.337 42.035 38.7967 41.713C39.324 41.342 39.8233 40.782 40.6773 41.2347C40.563 41.559 40.458 41.86 40.3483 42.1773C40.4253 42.2847 40.4977 42.413 40.5957 42.518C42.047 44.065 43.8623 44.492 45.8877 44.1677C46.5993 44.0533 47.29 43.82 47.9923 43.638C48.2257 43.5774 48.4613 43.449 48.6877 43.4654C48.8977 43.4794 49.1567 43.5983 49.2827 43.7593C49.4973 44.03 49.341 44.3077 49.1147 44.52C49.0097 44.618 48.8883 44.7044 48.76 44.7674C47.115 45.5584 45.3767 45.9037 43.5613 45.7217C42.3737 45.6027 41.3353 45.1057 40.5023 44.2237C40.206 43.911 39.8863 43.6194 39.464 43.204L39.4617 43.1994Z" fill="black"/>
<path d="M43.5006 21.4924C43.8202 21.5974 44.2262 21.6557 44.5412 21.8564C44.8446 22.0501 45.1082 22.3604 45.2856 22.6801C45.3719 22.8341 45.2902 23.1864 45.1572 23.3264C45.0289 23.4594 44.6649 23.5434 44.5249 23.4571C42.8426 22.4187 41.1859 22.8947 39.5479 23.5224C38.8782 23.7791 38.2576 24.1641 37.6089 24.4814C37.3079 24.6284 37.0046 24.7894 36.6826 24.8664C36.5402 24.9014 36.2906 24.7847 36.2019 24.6587C36.1156 24.5351 36.1272 24.2924 36.1832 24.1361C36.2462 23.9657 36.3839 23.7977 36.5332 23.6834C38.4069 22.2507 40.4019 21.1494 42.8799 21.4107C43.0712 21.4317 43.2602 21.4621 43.5029 21.4947L43.5006 21.4924Z" fill="black"/>
<path d="M42.7772 47.4577C43.1109 47.334 43.3676 47.1403 43.5869 47.1777C44.2496 47.2873 44.8936 47.4483 45.5749 47.2943C45.7126 47.264 46.0346 47.432 46.0322 47.509C46.0322 47.719 45.9529 48.0643 45.8176 48.1133C45.3346 48.286 44.8189 48.4307 44.3102 48.4447C43.7269 48.461 43.1762 48.265 42.7749 47.4553L42.7772 47.4577Z" fill="black"/>
</svg>
