<svg width="32" height="32" viewBox="0 0 32 32" fill="none" xmlns="http://www.w3.org/2000/svg">
<path d="M15.9998 19.4042C19.9647 19.4042 23.4393 18.7694 25.8297 17.8326C27.0326 17.3611 27.8335 16.8629 28.2904 16.4396C28.5302 16.2175 28.6213 16.0699 28.6541 16C28.6213 15.9301 28.5302 15.7825 28.2904 15.5603C27.8335 15.137 27.0326 14.6389 25.8297 14.1674C23.4393 13.2305 19.9647 12.5957 15.9998 12.5957C12.0349 12.5957 8.56035 13.2305 6.16994 14.1674C4.967 14.6389 4.16607 15.137 3.70918 15.5603C3.46981 15.7821 3.37931 15.9299 3.34633 16C3.37931 16.07 3.46981 16.2178 3.70918 16.4396C4.16607 16.8629 4.967 17.3611 6.16994 17.8326C8.56035 18.7694 12.0349 19.4042 15.9998 19.4042ZM15.9998 21.9574C7.60508 21.9574 0.799805 19.2901 0.799805 16C0.799805 12.7098 7.60508 10.0426 15.9998 10.0426C24.3945 10.0426 31.1998 12.7098 31.1998 16C31.1998 19.2902 24.3945 21.9574 15.9998 21.9574Z" fill="#555555"/>
<path d="M18.9252 17.702C20.9076 14.2414 22.0995 10.8914 22.4896 8.33663C22.6859 7.05094 22.6583 6.10279 22.523 5.49238C22.452 5.17206 22.3707 5.01875 22.3271 4.95514C22.2506 4.94886 22.0782 4.95456 21.7674 5.05272C21.1753 5.23986 20.3467 5.68983 19.3401 6.50403C17.3399 8.12195 15.0571 10.8372 13.0747 14.2978C11.0922 17.7584 9.9004 21.1084 9.51025 23.6632C9.31393 24.9489 9.34154 25.897 9.47682 26.5074C9.54774 26.8273 9.62951 26.9802 9.67319 27.044C9.74985 27.0502 9.92213 27.0451 10.2324 26.9471C10.8246 26.76 11.6531 26.31 12.6597 25.4958C14.66 23.8779 16.9427 21.1626 18.9252 17.702ZM21.1191 18.9786C16.9217 26.3056 11.2272 30.9117 8.39993 29.2666C5.57269 27.6215 6.68339 20.3482 10.8808 13.0212C15.0781 5.69422 20.7727 1.08813 23.5999 2.73323C26.4272 4.37832 25.3165 11.6516 21.1191 18.9786Z" fill="#555555"/>
<path d="M13.0746 17.7022C15.0571 21.1628 17.3398 23.8781 19.34 25.496C20.3467 26.3102 21.1752 26.7601 21.7674 26.9473C22.0781 27.0454 22.2505 27.0511 22.327 27.0449C22.3706 26.9813 22.4519 26.8279 22.523 26.5076C22.6582 25.8972 22.6859 24.9491 22.4895 23.6634C22.0994 21.1086 20.9076 17.7586 18.9251 14.298C16.9426 10.8374 14.6599 8.12213 12.6597 6.50421C11.6531 5.69001 10.8245 5.24004 10.2323 5.05291C9.92206 4.95489 9.74978 4.9498 9.67312 4.95604C9.62944 5.01983 9.54767 5.17274 9.47675 5.49256C9.34147 6.10298 9.31386 7.05112 9.51018 8.33681C9.90033 10.8916 11.0922 14.2416 13.0746 17.7022ZM10.8807 18.9788C6.68332 11.6518 5.57262 4.3785 8.39986 2.73341C11.2271 1.08832 16.9217 5.6944 21.119 13.0214C25.3164 20.3484 26.4271 27.6217 23.5999 29.2668C20.7726 30.9119 15.0781 26.3058 10.8807 18.9788Z" fill="#555555"/>
</svg>
