<svg width="70" height="70" viewBox="0 0 70 70" fill="none" xmlns="http://www.w3.org/2000/svg">
<path d="M13.7643 50.4653C13.468 52.1126 14.0536 53.613 14.588 55.0993C15.701 58.156 18.0693 59.591 21.1633 59.976C21.7046 60.046 22.2763 59.8546 22.9716 59.7636C22.9203 60.053 22.946 60.3493 22.8176 60.522C22.407 61.0936 21.7373 61.2103 21.126 61.1333C17.857 60.7086 15.0826 59.5373 13.7643 56.1796C13.2183 54.7843 12.768 53.368 12.7143 51.863C12.6956 51.3473 12.817 50.813 12.9523 50.3113C12.992 50.1643 13.307 50.0546 13.5123 50.022C13.5776 50.015 13.79 50.33 13.7643 50.4653Z" fill="white"/>
<path d="M62.7853 28.6976C62.818 29.2763 62.825 29.869 62.7083 30.429C62.2183 32.8347 61.3433 35.0886 59.5606 36.8386C58.8583 37.534 58.7043 38.2666 58.7556 39.1813C58.884 41.4586 59.3273 43.68 59.85 45.892C60.333 47.9313 60.4683 49.9916 60.102 52.0683C59.7473 54.089 58.8933 55.832 57.2973 57.1573C56.0746 58.1793 54.845 59.1967 53.6036 60.1883C53.347 60.3867 53.011 60.5103 52.689 60.5873C52.5536 60.62 52.304 60.4847 52.22 60.3493C52.143 60.221 52.136 59.9503 52.227 59.829C52.4207 59.5583 52.6773 59.3343 52.9293 59.108C53.907 58.24 54.873 57.3696 55.8693 56.5273C58.0253 54.6933 58.8233 52.2876 58.7836 49.5576C58.765 48.405 58.611 47.2477 58.4173 46.109C58.0323 43.7407 57.5937 41.3793 57.477 38.9526C56.6603 43.1153 55.8367 47.2546 54.684 51.3146C54.922 51.3006 55.1856 51.282 55.5216 51.2563C55.573 51.4943 55.664 51.681 55.6383 51.849C55.2136 54.705 53.7646 56.882 51.2237 58.289C50.547 58.6623 49.847 58.9913 49.1376 59.2993C48.8927 59.402 48.5193 59.493 48.314 59.3763C47.761 59.073 47.292 59.318 46.788 59.4533C46.228 59.5956 45.668 59.7357 45.108 59.8967C43.5003 60.3657 41.93 60.123 40.4553 59.4463C39.2723 58.905 38.164 58.212 37.0323 57.568C36.743 57.407 36.4863 57.2086 36.2273 57.0336C34.174 59.073 32.893 59.3506 29.813 58.45C29.645 59.3646 28.9636 59.647 28.1516 59.717C25.7763 59.9293 23.7766 59.1383 22.1666 57.393C21.035 56.1633 20.293 54.698 20.0036 53.0436C19.908 52.4907 19.985 51.898 20.062 51.331C20.0806 51.163 20.3653 51.0346 20.531 50.8876C20.6663 51.0556 20.93 51.2353 20.916 51.3963C20.832 52.78 21.399 53.9443 22.0686 55.076C23.2516 57.071 24.99 58.2423 27.314 58.5247C28.0093 58.6087 28.6533 58.569 29.225 58.016C28.735 57.393 28.2333 56.812 27.8156 56.175C27.4493 55.615 27.16 54.9967 26.8753 54.3853C26.7586 54.1333 26.7143 53.8253 26.7283 53.5476C26.7353 53.3867 26.8963 53.1626 27.0363 53.109C27.1646 53.0646 27.4283 53.1533 27.5263 53.277C27.706 53.4963 27.79 53.7856 27.944 54.0306C28.3873 54.719 28.826 55.4143 29.309 56.077C29.9133 56.8937 30.7696 57.3183 31.7543 57.498C33.292 57.7686 33.9546 57.5423 35.3266 56.231C33.4856 54.467 31.7357 52.654 30.59 50.2973C29.4887 48.02 28.8073 45.626 28.2216 43.0453C27.8366 43.778 27.5333 44.415 27.1716 45.0146C26.761 45.6913 26.2453 46.3657 25.3446 46.1463C24.521 45.948 24.3343 45.1687 24.213 44.4407C24.122 43.8736 24.1103 43.288 24.059 42.6137C23.8466 42.4713 23.59 42.259 23.2936 42.119C21.448 41.2113 20.2953 39.7693 19.7796 37.7696C19.2453 35.7116 19.1356 33.67 19.7026 31.612C20.244 29.6566 21.5693 28.357 23.3636 27.5636C24.689 26.978 26.0213 27.1646 27.174 28.1096C27.6896 28.5343 28.1516 29.029 28.686 29.5376C28.7116 28.308 28.693 27.111 28.777 25.928C28.8423 25.0646 28.9823 24.2036 29.2016 23.366C29.337 22.8713 29.666 22.421 29.9413 21.9706C30.0953 21.7256 30.3333 21.5016 30.6623 21.6556C31.01 21.8236 30.919 22.1246 30.8046 22.4023C30.7346 22.582 30.632 22.75 30.5666 22.9296C29.89 24.822 29.7616 27.7246 30.289 29.8526C31.8196 27.4586 33.5323 25.2583 34.0923 22.4583C33.964 22.407 33.9196 22.3626 33.873 22.3673C33.5183 22.4256 33.1263 22.7523 32.8183 22.3346C32.4893 21.903 32.8113 21.518 33.0166 21.1446C33.061 21.0676 33.1333 20.9906 33.2033 20.9253C35.0816 19.2966 36.3113 17.1406 37.8116 15.225C38.332 15.1853 38.43 15.5073 38.3576 15.876C38.178 16.7906 37.772 17.6143 37.212 18.354C36.9296 18.7273 36.652 19.1006 36.26 19.628C37.303 19.0936 38.1336 18.6246 38.892 17.9806C40.6676 16.4803 41.44 14.532 41.7737 12.3246C41.8903 11.571 41.3887 11.0623 41.1227 10.3553C40.712 10.3996 40.2803 10.4136 39.8743 10.5093C37.0113 11.2233 34.097 11.5056 31.1616 11.6876C30.345 11.732 29.533 11.8416 28.7233 11.977C27.2626 12.229 25.963 12.859 24.836 13.811C23.233 15.162 21.9076 16.751 20.8903 18.592C20.0596 20.104 19.6606 21.7326 19.6933 23.457C19.7003 24.2363 19.7773 25.0016 19.3596 25.7226C19.2243 25.9536 19.25 26.2826 19.2056 26.565C18.935 28.2823 18.711 30.0066 18.368 31.7123C17.9876 33.5836 17.024 35.2263 16.0323 36.827C14.539 39.2536 12.957 41.6267 11.4893 44.065C10.7496 45.2993 10.0473 46.5873 9.54565 47.9383C8.50965 50.764 8.71498 53.529 10.3296 56.1353C10.8966 57.05 11.6106 57.827 12.607 58.2983C12.7796 58.3823 12.9733 58.4593 13.1016 58.5876C13.23 58.709 13.398 58.9423 13.3536 59.0566C13.2883 59.255 13.0713 59.5326 12.9103 59.5326C12.4996 59.5326 12.0353 59.493 11.669 59.3203C9.77665 58.4056 8.60531 56.8237 7.89131 54.9243C6.83665 52.1243 7.00931 49.3336 8.15498 46.592C8.86198 44.8863 9.86765 43.3486 10.878 41.818C12.236 39.7646 13.6266 37.7323 14.9823 35.672C16.352 33.593 17.2853 31.3553 17.6843 28.8633C18.025 26.7143 18.3213 24.577 18.431 22.3953C18.578 19.4226 19.635 16.751 21.7 14.525C22.722 13.4236 23.7976 12.3876 25.1113 11.6293C26.7913 10.6633 28.6183 10.2596 30.5293 10.2713C33.2453 10.29 35.9286 9.94931 38.605 9.56898C39.4146 9.45231 40.2126 9.26098 41.0176 9.10465C44.1256 8.49331 47.0913 8.85965 49.826 10.5C51.7253 11.6316 53.1907 13.2346 54.3946 15.0756C56.196 17.843 57.1177 20.9253 57.5797 24.1616C57.6193 24.451 57.6497 24.7403 57.701 25.025C57.7197 25.109 57.792 25.186 57.8433 25.277C57.9273 25.291 58.037 25.354 58.0953 25.3213C60.3283 24.2153 62.657 26.7423 62.7807 28.6813L62.7853 28.6976Z" fill="white"/>
<path d="M12.3434 58.7977C12.3434 58.7977 19.0494 61.6724 21.8097 60.879C24.57 60.0857 28.9147 59.2457 28.9147 59.2457L29.7174 58.156C29.7174 58.156 32.935 58.8 36.7967 56.2264L49.0234 57.5144C49.0234 57.5144 52.241 60.732 53.5267 60.088C54.8124 59.444 58.149 54.7564 58.4757 54.1847C58.8024 53.613 60.6807 47.5697 58.7207 44.1397C56.7607 40.7097 58.149 37.2797 58.149 37.2797L56.7607 25.767L49.0024 11.396L41.8974 9.84436L30.7114 11.151C30.7114 11.151 22.218 12.0494 20.1787 18.256C18.137 24.4627 18.382 27.9744 18.382 27.9744C18.382 27.9744 16.667 36.631 13.8087 39.1604C10.9504 41.692 7.35703 50.5097 7.9287 52.2247C8.50037 53.9397 10.5537 58.7604 12.3434 58.8V58.7977Z" fill="white"/>
<path d="M62.7083 30.4267C62.825 29.8667 62.8179 29.274 62.7853 28.6954C62.6639 26.7587 60.333 24.2294 58.1 25.3354C58.0416 25.368 57.9319 25.3027 57.8479 25.291C57.7966 25.2 57.7266 25.123 57.7056 25.039C57.6543 24.7567 57.6216 24.4674 57.5843 24.1757C57.1199 20.9394 56.2006 17.857 54.3993 15.0897C53.1953 13.2487 51.7299 11.648 49.8306 10.514C47.096 8.87369 44.1303 8.50735 41.0223 9.11869C40.2173 9.27269 39.4193 9.46635 38.6096 9.58302C35.9333 9.96335 33.25 10.304 30.534 10.2854C28.623 10.2714 26.796 10.6774 25.116 11.6434C23.8023 12.4017 22.729 13.4377 21.7046 14.539C19.6396 16.765 18.5826 19.4367 18.4356 22.4094C18.326 24.591 18.0296 26.726 17.689 28.8774C17.29 31.367 16.3566 33.607 14.987 35.686C13.629 37.744 12.2383 39.7787 10.8826 41.832C9.87229 43.3627 8.86895 44.9004 8.15962 46.606C7.01395 49.3477 6.84129 52.1407 7.89595 54.9384C8.60995 56.8377 9.78129 58.4197 11.6736 59.3344C12.04 59.507 12.5043 59.5467 12.915 59.5467C13.076 59.5467 13.2953 59.269 13.3583 59.0707C13.4026 58.954 13.237 58.723 13.1063 58.6017C12.978 58.4734 12.7843 58.3964 12.6116 58.3124C11.6153 57.8434 10.899 57.064 10.3343 56.1494C8.71962 53.543 8.51429 50.7757 9.55029 47.9524C10.052 46.6014 10.7543 45.3134 11.494 44.079C12.9616 41.6407 14.5436 39.2654 16.037 36.841C17.0286 35.238 17.9923 33.5977 18.3726 31.7264C18.7133 30.0207 18.9396 28.2964 19.2103 26.579C19.2546 26.2967 19.229 25.9677 19.3643 25.7367C19.782 25.0157 19.705 24.2504 19.698 23.471C19.6653 21.7467 20.0643 20.118 20.895 18.606C21.9123 16.765 23.2376 15.176 24.8406 13.825C25.9676 12.873 27.2673 12.243 28.728 11.991C29.5376 11.8557 30.3496 11.746 31.1663 11.7017C34.1016 11.522 37.016 11.2374 39.879 10.5234C40.285 10.4277 40.7166 10.4137 41.1273 10.3694C41.3909 11.0764 41.8926 11.585 41.7783 12.3387C41.4446 14.546 40.6723 16.4967 38.8966 17.9947C38.1383 18.6387 37.3076 19.1077 36.2646 19.642C36.6566 19.1147 36.9343 18.7414 37.2166 18.368C37.7766 17.6284 38.1826 16.8047 38.3623 15.89C38.4323 15.5237 38.3366 15.2017 37.8163 15.239C36.316 17.157 35.0886 19.313 33.208 20.9394C33.138 21.0047 33.0656 21.0817 33.0213 21.1587C32.816 21.532 32.494 21.917 32.823 22.3487C33.131 22.7664 33.5253 22.4397 33.8776 22.3814C33.922 22.3744 33.9686 22.421 34.097 22.4724C33.537 25.2724 31.8266 27.4727 30.2936 29.8667C29.7663 27.7364 29.8946 24.8337 30.5713 22.9437C30.6366 22.764 30.7393 22.596 30.8093 22.4164C30.926 22.1387 31.0146 21.8377 30.667 21.6697C30.338 21.5157 30.1 21.7397 29.946 21.9847C29.6683 22.435 29.3416 22.8854 29.2063 23.38C28.987 24.2177 28.847 25.0787 28.7816 25.942C28.6976 27.125 28.7163 28.322 28.6906 29.5517C28.1563 29.043 27.6943 28.5484 27.1786 28.1237C26.026 27.1787 24.696 26.992 23.3683 27.5777C21.574 28.3687 20.2463 29.6684 19.7073 31.626C19.1403 33.684 19.25 35.7257 19.7843 37.7837C20.3 39.7857 21.4503 41.2254 23.2983 42.133C23.5946 42.2754 23.8513 42.4877 24.0636 42.6277C24.115 43.3044 24.129 43.89 24.2176 44.4547C24.339 45.1827 24.5256 45.9597 25.3493 46.1604C26.25 46.3797 26.7656 45.703 27.1763 45.0287C27.5356 44.4314 27.839 43.7944 28.2263 43.0594C28.812 45.64 29.4933 48.034 30.5946 50.3114C31.7403 52.6657 33.4903 54.481 35.3313 56.245C33.9616 57.5587 33.299 57.7827 31.759 57.512C30.7743 57.3324 29.918 56.9077 29.3136 56.091C28.8306 55.4284 28.3943 54.733 27.9486 54.0447C27.7946 53.7997 27.7106 53.5104 27.531 53.291C27.4353 53.1697 27.1716 53.0787 27.041 53.123C26.8986 53.1744 26.7376 53.4007 26.733 53.5617C26.719 53.8394 26.7656 54.1474 26.88 54.3994C27.1623 55.0107 27.4516 55.629 27.8203 56.189C28.238 56.826 28.7396 57.4047 29.2296 58.03C28.658 58.583 28.014 58.6227 27.3186 58.5387C24.9946 58.2564 23.2586 57.085 22.0733 55.09C21.4036 53.9584 20.839 52.7917 20.9206 51.4104C20.9346 51.2494 20.6686 51.0697 20.5356 50.9017C20.3676 51.0487 20.0853 51.1794 20.0666 51.345C19.9896 51.912 19.9126 52.5024 20.0083 53.0577C20.2976 54.712 21.0373 56.1797 22.1713 57.407C23.779 59.15 25.781 59.9434 28.1563 59.731C28.966 59.661 29.6496 59.3764 29.8176 58.464C32.9 59.3647 34.181 59.0894 36.232 57.0477C36.4886 57.2204 36.7476 57.421 37.037 57.582C38.1686 58.226 39.277 58.9214 40.4599 59.4604C41.9346 60.137 43.5026 60.3797 45.1126 59.9107C45.6726 59.7497 46.2326 59.6074 46.7926 59.4674C47.2943 59.332 47.7633 59.087 48.3186 59.3904C48.524 59.507 48.8973 59.416 49.1423 59.3134C49.8493 59.0054 50.5516 58.6764 51.2283 58.303C53.7693 56.8937 55.2183 54.719 55.643 51.863C55.6686 51.695 55.5776 51.5084 55.5263 51.2704C55.1926 51.296 54.929 51.3147 54.6886 51.3287C55.8413 47.2687 56.665 43.1317 57.4816 38.9667C57.5983 41.3934 58.0346 43.7547 58.422 46.123C58.6156 47.2617 58.7696 48.4214 58.7883 49.5717C58.8279 52.2994 58.03 54.7074 55.874 56.5414C54.8776 57.3837 53.9116 58.254 52.934 59.122C52.682 59.3484 52.4253 59.5724 52.2316 59.843C52.1406 59.9644 52.1476 60.235 52.2246 60.3634C52.3086 60.4987 52.5583 60.634 52.6936 60.6014C53.0156 60.5244 53.3493 60.403 53.6083 60.2024C54.8496 59.2107 56.0793 58.1957 57.302 57.1714C58.898 55.846 59.7543 54.103 60.1066 52.0824C60.473 50.0034 60.3376 47.9454 59.8546 45.906C59.3343 43.6917 58.8886 41.4727 58.7603 39.1954C58.709 38.2807 58.863 37.548 59.5653 36.8527C61.3479 35.1027 62.2229 32.851 62.7129 30.443L62.7083 30.4267ZM25.8743 44.3847C25.34 44.0767 25.5406 43.575 25.3843 42.924C25.8603 43.0267 26.117 43.078 26.4063 43.1364C26.516 43.6894 26.285 44.0557 25.872 44.3847H25.8743ZM28.231 41.9464C27.9486 41.5917 27.8063 41.3677 27.6196 41.188C27.4586 41.02 27.2463 40.8987 26.9896 40.705C26.719 40.9034 26.4623 41.09 26.0446 41.3934C24.0426 41.0084 22.358 40.0494 21.5716 37.828C20.9603 36.0967 20.8693 34.321 21.161 32.5454C21.4316 30.8584 22.4863 29.6754 24.0053 28.9427C24.8803 28.525 25.7226 28.7957 26.4623 29.2974C26.8543 29.561 27.202 29.9344 27.4796 30.3194C28.483 31.7474 28.6953 33.3947 28.644 35.1447C28.3873 34.7597 28.1493 34.3724 27.8786 33.999C27.2813 33.1754 26.6746 32.34 25.704 31.934C25.1766 31.7147 24.598 31.5864 24.031 31.528C23.8256 31.5024 23.471 31.7404 23.3753 31.9457C23.2143 32.2794 23.5433 32.466 23.8256 32.5314C25.0156 32.802 25.9163 33.4834 26.6373 34.4424C26.747 34.5847 26.817 34.7644 26.9336 34.9697C26.5673 35.182 26.2266 35.3547 25.9116 35.567C24.934 36.2227 24.3926 37.163 24.2246 38.3157C24.185 38.5467 24.1803 38.8314 24.29 39.018C24.4183 39.2444 24.6563 39.501 24.8873 39.5524C25.228 39.6224 25.3633 39.2887 25.396 38.9854C25.4986 38.0964 25.7623 37.2937 26.4716 36.687C26.929 36.295 27.3536 35.9474 27.9836 36.456C28.1306 36.5727 28.4993 36.4304 28.7163 36.4117C28.5693 38.129 28.4083 39.9304 28.2333 41.9464H28.231ZM53.718 53.9024C53.704 53.942 53.6923 53.9724 53.6853 54.012C53.6713 54.019 53.6666 54.026 53.6526 54.0307C53.4986 54.334 53.3446 54.642 53.1883 54.9454C53.1043 54.495 53.3306 54.2384 53.6526 54.0307C53.6596 54.0167 53.6666 54.005 53.6713 53.991C53.6853 53.9584 53.697 53.9327 53.7156 53.9C53.7856 53.6224 53.8626 53.333 53.942 53.0577C53.9863 53.0764 54.0376 53.0904 54.0843 53.109C53.963 53.3727 53.8323 53.6364 53.718 53.9V53.9024ZM55.9906 33.9407C55.5403 38.857 54.7166 43.708 53.417 48.4774C52.9083 50.351 52.4136 52.241 51.261 53.8114C49.2333 56.56 46.4869 58.1234 43.0313 58.303C42.6136 58.3287 42.1679 58.212 41.769 58.065C39.844 57.3627 38.0893 56.3594 36.5563 54.9897C34.9276 53.536 33.3643 52.0287 32.361 50.0547C30.7463 46.8627 29.6916 43.5494 29.9413 39.907C30.0183 38.703 29.96 37.4944 29.9553 36.2904C29.9483 35.525 29.9623 34.8227 30.471 34.1157C30.9353 33.4647 31.1523 32.6224 31.3646 31.8384C31.6213 30.8864 31.9946 30.0114 32.5033 29.1807C33.4623 27.6104 34.2603 25.956 34.8063 24.2014C34.9603 23.6927 35.1283 23.1794 35.1656 22.6567C35.21 22.1154 35.4106 21.7747 35.8866 21.504C37.4383 20.622 38.9876 19.7284 40.4996 18.781C42.546 17.507 43.9296 15.6987 44.688 13.4074C44.7976 13.0667 44.9516 12.7307 45.157 12.2034C45.4603 12.8404 45.6073 13.3047 45.871 13.6897C47.0423 15.3884 48.7153 16.2377 50.722 16.5014C51.2423 16.5667 51.772 16.6297 52.2993 16.6437C52.4463 16.6507 52.6843 16.4827 52.731 16.3474C52.7706 16.219 52.661 15.9484 52.5326 15.8714C52.1266 15.6147 51.6763 15.4327 51.2586 15.19C50.1316 14.5344 49.49 13.594 49.5856 12.236L49.5786 12.229L49.5646 12.215C48.6383 11.977 48.4003 12.1497 48.4843 12.9944C48.5099 13.2767 48.601 13.5544 48.671 13.8367C48.7293 14.063 48.7923 14.287 48.902 14.7047C47.9873 14.3384 47.3316 13.881 46.921 13.1857C46.5103 12.4974 46.2256 11.739 45.899 11.0367C44.7463 11.011 44.156 11.578 43.8526 12.5487C43.596 13.3724 43.2553 14.1517 42.5716 14.994C42.7186 14.042 42.9263 13.307 42.9263 12.5674C42.9263 11.8277 42.721 11.0624 42.5856 10.192C45.1406 9.99835 47.5393 10.4114 49.567 12.2127C49.574 12.2127 49.581 12.2197 49.5856 12.2197V12.2337C50.1526 12.6654 50.764 13.0504 51.2656 13.552C53.1953 15.477 54.3083 17.857 55.146 20.6104C54.74 20.5194 54.4949 20.4564 54.2453 20.4237C52.507 20.2044 51.1513 20.9907 49.9729 22.1364C49.6393 22.4654 49.6253 22.9274 50.204 23.289C50.4093 23.1677 50.6356 23.0114 50.8853 22.897C51.625 22.5564 52.353 22.1574 53.13 21.9194C54.236 21.5787 55.4656 22.253 55.7106 23.387C55.93 24.416 55.9626 25.4987 56.0396 26.5534C56.0793 27.1204 55.629 27.4027 55.2229 27.6594C54.838 27.9044 54.4949 27.769 54.1426 27.4214C54.3293 27.0737 54.5416 26.7587 54.67 26.404C54.7866 26.096 54.831 25.753 54.8496 25.4264C54.8566 25.3307 54.7026 25.1697 54.586 25.13C54.4693 25.0904 54.2966 25.13 54.187 25.1954C54.0703 25.2607 53.9816 25.3937 53.9163 25.5174C53.3703 26.6444 52.3786 27.209 51.2773 27.6407C50.3883 27.9884 49.4876 28.322 48.4586 28.7094C48.3746 27.7317 48.6966 26.8637 48.7993 25.9817C48.839 25.648 48.9673 25.319 48.979 24.99C48.986 24.843 48.8436 24.605 48.7083 24.5514C48.566 24.493 48.2906 24.5514 48.1926 24.668C47.9803 24.92 47.8006 25.214 47.691 25.5244C47.544 25.9304 47.4926 26.3737 47.3689 26.7867C46.8486 28.5554 46.9956 30.177 48.1273 31.7357C48.874 32.7577 49.1119 34.027 49.3056 35.2824C49.434 36.092 49.1773 36.813 48.888 37.534C48.734 37.94 48.5076 38.3134 48.3093 38.7054C48.1156 39.0904 48.1413 39.4777 48.4516 39.767C48.8063 40.096 49.1796 39.9024 49.4876 39.6457C50.2273 39.0484 50.666 38.255 50.9296 37.3544C51.2446 36.2484 51.1163 35.147 50.8596 34.0597C50.743 33.5907 50.6076 33.1334 50.4933 32.7087C51.9866 30.8234 52.0193 30.758 52.3716 28.777C53.1113 28.5787 53.774 28.784 54.3853 29.2157C54.9313 29.596 55.4656 29.9997 56.1026 30.471C56.329 31.5584 56.0886 32.7624 55.986 33.9454L55.9906 33.9407ZM58.3963 35.9684C58.2493 36.071 58.0883 36.155 57.799 36.3347C57.7476 35.2147 57.7733 34.244 58.0369 33.2267C58.3706 33.4064 58.6483 33.5674 59.059 33.7937C59.136 33.446 59.2316 33.201 59.22 32.9514C59.213 32.7787 59.0846 32.592 58.968 32.4427C58.3753 31.7147 58.562 31.0077 59.0193 30.3194C59.3786 29.7664 59.7776 29.2904 60.5453 29.7594C60.648 29.8247 60.9443 29.7267 61.0283 29.6124C61.1193 29.491 61.138 29.232 61.0726 29.085C60.7833 28.371 60.165 28.0887 59.4253 28.3827C58.9936 28.5507 58.6156 28.8517 58.1256 29.148C57.9576 28.3687 57.8806 27.706 58.2283 27.069C58.6016 26.3994 59.0916 26.194 59.7916 26.516C60.8533 26.999 61.4203 27.867 61.4389 29.0267C61.4646 30.5457 60.9956 31.962 60.326 33.306C59.8313 34.3024 59.3226 35.287 58.3963 35.9707V35.9684Z" fill="black"/>
<path d="M22.9738 59.7636C22.9225 60.053 22.9482 60.3493 22.8198 60.522C22.4092 61.0936 21.7395 61.2103 21.1282 61.1333C17.8592 60.7086 15.0848 59.5373 13.7665 56.1796C13.2205 54.7843 12.7702 53.368 12.7165 51.863C12.6978 51.3473 12.8192 50.813 12.9545 50.3113C12.9942 50.1643 13.3092 50.0546 13.5145 50.022C13.5798 50.015 13.7922 50.33 13.7665 50.4653C13.4702 52.1126 14.0558 53.613 14.5902 55.0993C15.7032 58.156 18.0715 59.591 21.1655 59.976C21.7068 60.046 22.2785 59.8546 22.9738 59.7636Z" fill="black"/>
<path d="M43.7593 28.5717C44.1933 28.4224 44.6273 28.2754 45.2176 28.0747C45.2083 28.4177 45.297 28.7281 45.1803 28.8821C44.8653 29.2974 44.4616 29.6451 44.0696 30.0487C42.875 29.9414 41.8133 28.8424 40.586 29.4444C40.39 30.2214 40.313 30.9564 40.012 31.5817C39.753 32.1207 39.3026 32.6201 38.822 32.9887C38.0076 33.6141 37.1723 33.1731 37.135 32.1347C37.1186 31.6657 37.2236 31.1944 37.2726 30.7254C36.8946 30.5294 36.2786 30.9727 36.1526 30.3357C36.0546 29.8411 36.5026 29.5657 36.848 29.3277C38.1103 28.4574 39.5523 27.8997 41.0503 27.9837C42.2986 28.0537 42.9356 27.4891 43.5003 26.5954C43.6286 26.3947 43.6706 26.1311 43.82 25.9561C43.9226 25.8347 44.1676 25.7274 44.3053 25.7671C44.4453 25.8091 44.6343 26.0517 44.618 26.1801C44.562 26.6024 44.4686 27.0341 44.2983 27.4191C44.1466 27.7621 43.869 28.0514 43.6473 28.3641C43.6823 28.4341 43.7173 28.5041 43.7546 28.5741L43.7593 28.5717Z" fill="black"/>
<path d="M39.4612 43.1994C39.3328 43.4467 39.2908 43.596 39.1952 43.694C38.8405 44.0603 38.4765 44.0347 38.2805 43.631C38.1988 43.4607 38.1195 43.2693 38.1148 43.085C38.1008 42.518 38.3365 42.035 38.7962 41.713C39.3235 41.342 39.8228 40.782 40.6768 41.2347C40.5625 41.559 40.4575 41.86 40.3478 42.1773C40.4248 42.2847 40.4972 42.413 40.5952 42.518C42.0465 44.065 43.8618 44.492 45.8872 44.1677C46.5988 44.0533 47.2895 43.82 47.9918 43.638C48.2252 43.5774 48.4608 43.449 48.6872 43.4654C48.8972 43.4794 49.1562 43.5983 49.2822 43.7593C49.4968 44.03 49.3405 44.3077 49.1142 44.52C49.0092 44.618 48.8878 44.7044 48.7595 44.7674C47.1145 45.5584 45.3762 45.9037 43.5608 45.7217C42.3732 45.6027 41.3348 45.1057 40.5018 44.2237C40.2055 43.911 39.8858 43.6194 39.4635 43.204L39.4612 43.1994Z" fill="black"/>
<path d="M43.5003 21.4924C43.82 21.5974 44.226 21.6557 44.541 21.8564C44.8443 22.0501 45.108 22.3604 45.2853 22.6801C45.3717 22.8341 45.29 23.1864 45.157 23.3264C45.0287 23.4594 44.6647 23.5434 44.5247 23.4571C42.8423 22.4187 41.1857 22.8947 39.5477 23.5224C38.878 23.7791 38.2573 24.1641 37.6087 24.4814C37.3077 24.6284 37.0043 24.7894 36.6823 24.8664C36.54 24.9014 36.2903 24.7847 36.2017 24.6587C36.1153 24.5351 36.127 24.2924 36.183 24.1361C36.246 23.9657 36.3837 23.7977 36.533 23.6834C38.4067 22.2507 40.4017 21.1494 42.8797 21.4107C43.071 21.4317 43.26 21.4621 43.5027 21.4947L43.5003 21.4924Z" fill="black"/>
<path d="M42.7767 47.4577C43.1104 47.334 43.3671 47.1403 43.5864 47.1777C44.2491 47.2873 44.8931 47.4483 45.5744 47.2943C45.7121 47.264 46.0341 47.432 46.0317 47.509C46.0317 47.719 45.9524 48.0643 45.8171 48.1133C45.3341 48.286 44.8184 48.4307 44.3097 48.4447C43.7264 48.461 43.1757 48.265 42.7744 47.4553L42.7767 47.4577Z" fill="black"/>
</svg>
