<svg width="27" height="25" viewBox="0 0 27 25" fill="none" xmlns="http://www.w3.org/2000/svg">
<path d="M24.9175 7.69238C26.0693 7.69238 27 8.62253 27 9.77365C27 10.9248 26.0693 11.8549 24.9175 11.8549H14.0425V7.69238H24.9175Z" fill="url(#paint0_linear_1733_68)"/>
<path d="M11.6668 7.60487C12.9677 9.62448 12.0268 15.2362 7.70759 16.8139C4.72016 17.9033 0.200456 17.4459 0.200456 16.1561V14.0234C0.200456 13.1755 0.0976181 10.2617 3.97973 7.60487C9.17816 4.04359 9.10618 0.816336 9.69749 0.307581C10.2888 -0.206313 11.2452 -0.108673 11.9908 0.84717C12.7363 1.80301 13.3019 3.11344 12.762 5.26152C12.2581 7.25542 11.6668 7.61001 11.6668 7.61001V7.60487Z" fill="url(#paint1_linear_1733_68)"/>
<path d="M18.7779 11.7676C19.9297 11.7676 20.8604 12.6977 20.8604 13.8488C20.8604 15 19.9297 15.9301 18.7779 15.9301H14.0371V11.7676H18.7779Z" fill="url(#paint2_linear_1733_68)"/>
<path d="M17.287 15.9299C18.4388 15.9299 19.3695 16.8601 19.3695 18.0112C19.3695 19.1623 18.4388 20.0925 17.287 20.0925H14.0425V15.9299H17.287Z" fill="url(#paint3_linear_1733_68)"/>
<path d="M16.1866 20.0874C17.3384 20.0874 18.2691 21.0175 18.2691 22.1687C18.2691 23.3198 17.3384 24.2499 16.1866 24.2499H14.0425V20.0874H16.1866Z" fill="url(#paint4_linear_1733_68)"/>
<path d="M14.1247 7.60474H6.06741C2.84345 7.60474 0 10.0303 0 15.9298C0 21.8293 2.84345 24.2549 6.06741 24.2549H14.1247V7.60474Z" fill="url(#paint5_linear_1733_68)"/>
<defs>
<linearGradient id="paint0_linear_1733_68" x1="18.7473" y1="11.5517" x2="21.9431" y2="7.06885" gradientUnits="userSpaceOnUse">
<stop stop-color="#FFBA4A"/>
<stop offset="1" stop-color="#FF8F1F"/>
</linearGradient>
<linearGradient id="paint1_linear_1733_68" x1="4.62761" y1="5.74458" x2="8.0696" y2="12.1853" gradientUnits="userSpaceOnUse">
<stop stop-color="#FFBA4A"/>
<stop offset="1" stop-color="#FF8F1F"/>
</linearGradient>
<linearGradient id="paint2_linear_1733_68" x1="16.7006" y1="14.1777" x2="18.7558" y2="11.3348" gradientUnits="userSpaceOnUse">
<stop stop-color="#FFBA4A"/>
<stop offset="1" stop-color="#FF8F1F"/>
</linearGradient>
<linearGradient id="paint3_linear_1733_68" x1="16.0838" y1="18.0677" x2="18.3294" y2="15.5124" gradientUnits="userSpaceOnUse">
<stop stop-color="#FFBA4A"/>
<stop offset="1" stop-color="#FF8F1F"/>
</linearGradient>
<linearGradient id="paint4_linear_1733_68" x1="15.3125" y1="22.2817" x2="17.5946" y2="20.5589" gradientUnits="userSpaceOnUse">
<stop stop-color="#FFBA4A"/>
<stop offset="1" stop-color="#FF8F1F"/>
</linearGradient>
<linearGradient id="paint5_linear_1733_68" x1="8.84402" y1="16.1765" x2="-4.69467" y2="25.5366" gradientUnits="userSpaceOnUse">
<stop stop-color="#FFBA4A"/>
<stop offset="1" stop-color="#FF8F1F"/>
</linearGradient>
</defs>
</svg>
