<svg width="32" height="32" viewBox="0 0 32 32" fill="none" xmlns="http://www.w3.org/2000/svg">
<mask id="path-1-inside-1_19885_669" fill="white">
<path d="M3.2002 5.2C3.2002 4.09543 4.09563 3.2 5.2002 3.2H26.8002C27.9048 3.2 28.8002 4.09543 28.8002 5.2V26.8C28.8002 27.9046 27.9048 28.8 26.8002 28.8H5.2002C4.09563 28.8 3.2002 27.9046 3.2002 26.8V5.2Z"/>
</mask>
<path d="M3.2002 5.2C3.2002 4.09543 4.09563 3.2 5.2002 3.2H26.8002C27.9048 3.2 28.8002 4.09543 28.8002 5.2V26.8C28.8002 27.9046 27.9048 28.8 26.8002 28.8H5.2002C4.09563 28.8 3.2002 27.9046 3.2002 26.8V5.2Z" stroke="#555555" stroke-width="6" mask="url(#path-1-inside-1_19885_669)"/>
<path d="M11.0225 16.2164L14.4358 19.5556L20.978 13.1556" stroke="#555555" stroke-width="3" stroke-linecap="round" stroke-linejoin="round"/>
</svg>
