<svg width="71" height="56" viewBox="0 0 71 56" fill="none" xmlns="http://www.w3.org/2000/svg">
<path d="M67.3484 35.7361C67.3484 18.277 53.195 4.12354 35.7359 4.12354C18.2768 4.12354 4.12335 18.277 4.12335 35.7361" stroke="#DDDDDD" stroke-width="3"/>
<path d="M11.6829 4.12354H58.7581" stroke="#DDDDDD" stroke-width="3"/>
<rect x="1" y="31.9253" width="5.55952" height="5.55952" fill="#2D2D2D" stroke="#DDDDDD" stroke-width="2"/>
<rect x="64.2251" y="31.9253" width="5.55952" height="5.55952" fill="#2D2D2D" stroke="#DDDDDD" stroke-width="2"/>
<rect x="32.6125" y="1" width="5.55952" height="5.55952" fill="#2D2D2D" stroke="#DDDDDD" stroke-width="2"/>
<circle cx="9.62117" cy="4.12343" r="1.74892" fill="#2D2D2D" stroke="#DDDDDD" stroke-width="2"/>
<circle cx="61.1635" cy="4.12343" r="1.74892" fill="#2D2D2D" stroke="#DDDDDD" stroke-width="2"/>
<path d="M47.8353 56C47.291 56 46.7468 55.7929 46.3325 55.3786L35.2905 44.3365L30.6389 53.6399C30.429 54.0597 30.0995 54.39 29.6861 54.595C29.3084 54.7822 28.8857 54.8521 28.4636 54.7972C28.0414 54.7423 27.6507 54.5666 27.3334 54.2891C26.9861 53.9852 26.7521 53.5817 26.6565 53.1222L20.5288 23.6635C20.3824 22.9596 20.5985 22.2359 21.1069 21.7275C21.6152 21.2192 22.339 21.003 23.0429 21.1495L52.5016 27.2771C52.961 27.3727 53.3646 27.6068 53.6684 27.9541C53.946 28.2712 54.1217 28.662 54.1766 29.0842C54.2314 29.5064 54.1615 29.9291 53.9743 30.3067C53.7693 30.7201 53.4391 31.0496 53.0193 31.2595L43.7159 35.9111L54.7579 46.9532C55.5865 47.7818 55.5865 49.13 54.7579 49.9586L49.338 55.3786C48.9238 55.7928 48.3794 56 47.8353 56Z" fill="#FF9500"/>
</svg>
