<svg width="61" height="56" viewBox="0 0 61 56" fill="none" xmlns="http://www.w3.org/2000/svg">
<rect y="4.2002" width="60.2" height="12.5999" fill="#DDDDDD"/>
<rect x="1" y="17.8003" width="58.2" height="37.1996" fill="white" stroke="white" stroke-width="2"/>
<path d="M44.842 46.7539H38.8689V29.6167H38.7438L33.7402 32.6189V27.5215L39.338 24.1128H44.842V46.7539Z" fill="#FF9500"/>
<path d="M21.7316 47.0669C19.9908 47.0669 18.4271 46.7646 17.0407 46.16C15.6647 45.5554 14.5806 44.711 13.7884 43.6269C13.0065 42.5428 12.6104 41.3128 12.6 39.9368H18.6043C18.6148 40.385 18.7555 40.7863 19.0265 41.1408C19.308 41.4848 19.6832 41.7558 20.1523 41.9538C20.6318 42.1519 21.1687 42.2509 21.7629 42.2509C22.357 42.2509 22.8835 42.1467 23.3421 41.9382C23.8008 41.7297 24.1552 41.4379 24.4054 41.0626C24.666 40.6873 24.7963 40.2599 24.7963 39.7804C24.7963 39.3009 24.6452 38.8787 24.3429 38.5139C24.051 38.1386 23.6392 37.8468 23.1076 37.6383C22.5864 37.4194 21.9818 37.3099 21.2938 37.3099H19.0109V33.182H21.2938C21.9088 33.182 22.4561 33.0829 22.9356 32.8849C23.4255 32.6764 23.806 32.3897 24.077 32.0249C24.3481 31.6601 24.4836 31.2431 24.4836 30.774C24.4836 30.0756 24.2334 29.5075 23.733 29.0697C23.2431 28.6214 22.5968 28.3973 21.7941 28.3973C21.2208 28.3973 20.7048 28.5016 20.2462 28.71C19.7875 28.9081 19.4279 29.1948 19.1672 29.57C18.9066 29.9349 18.7711 30.3466 18.7607 30.8053H13.0691C13.0691 29.4501 13.4444 28.241 14.1949 27.1777C14.9454 26.1144 15.9774 25.2857 17.2909 24.6916C18.6148 24.0974 20.1158 23.8003 21.7941 23.8003C23.4307 23.8003 24.8901 24.087 26.1723 24.6603C27.4545 25.2232 28.45 26.005 29.1588 27.0057C29.8781 27.996 30.2377 29.1166 30.2377 30.3675C30.2377 31.191 30.0397 31.9311 29.6436 32.5878C29.2579 33.2445 28.7158 33.7761 28.0174 34.1827C27.3294 34.5788 26.5372 34.829 25.6407 34.9332V35.1209C27.4128 35.3189 28.7627 35.8766 29.6905 36.7939C30.6286 37.7008 31.0925 38.8631 31.0821 40.2808C31.0821 41.5838 30.686 42.7513 29.8937 43.7833C29.1015 44.8153 27.9913 45.6231 26.5632 46.2069C25.1455 46.7802 23.535 47.0669 21.7316 47.0669Z" fill="#FF9500"/>
<rect x="8.39996" width="4.2" height="9.7999" fill="#FF9500"/>
<rect x="47.6" width="4.2" height="9.7999" fill="#FF9500"/>
</svg>
