<svg width="60" height="66" viewBox="0 0 60 66" fill="none" xmlns="http://www.w3.org/2000/svg">
<path d="M0 32.5898C0 31.4853 0.895431 30.5898 2 30.5898H13.4C13.9523 30.5898 14.4 31.0376 14.4 31.5898V50.7672C14.4 51.3195 13.9523 51.7672 13.4 51.7672H2C0.895432 51.7672 0 50.8718 0 49.7672V32.5898Z" fill="#FF9500"/>
<path d="M60 32.5898C60 31.4853 59.1046 30.5898 58 30.5898H46.6C46.0477 30.5898 45.6 31.0376 45.6 31.5898V50.7672C45.6 51.3195 46.0477 51.7672 46.6 51.7672H58C59.1046 51.7672 60 50.8718 60 49.7672V32.5898Z" fill="#FF9500"/>
<path fill-rule="evenodd" clip-rule="evenodd" d="M4.79993 24.707C4.79993 11.0617 16.0824 0 29.9999 0C43.9175 0 55.1999 11.0617 55.1999 24.707V30.5896H50.3999V24.707C50.3999 13.6608 41.2665 4.70609 29.9999 4.70609C18.7333 4.70609 9.59993 13.6608 9.59993 24.707V30.5896H4.79993V24.707Z" fill="#DDDDDD"/>
<path fill-rule="evenodd" clip-rule="evenodd" d="M8.4 51.7671V58.8262C8.4 60.7755 10.0118 62.3558 12 62.3558H24V64.7088H12C8.68629 64.7088 6 62.0751 6 58.8262V51.7671H8.4Z" fill="white"/>
<rect x="23.4147" y="60.2607" width="10.2439" height="5.73913" rx="1" fill="#DDDDDD"/>
<path fill-rule="evenodd" clip-rule="evenodd" d="M29.02 14.0538C28.8414 14.068 28.6746 14.0812 28.5273 14.0881C28.0202 14.2992 27.71 14.5168 27.5086 15.0445C27.3227 15.5313 27.2982 16.1465 27.2758 16.7064C27.2699 16.8555 27.2641 17.0006 27.2555 17.1384C26.5767 17.3685 25.9228 17.6067 25.2871 17.9396C25.219 17.8683 25.1501 17.7939 25.08 17.7182C24.5658 17.1628 23.9858 16.5364 23.1915 16.5169C22.5864 16.502 22.0709 16.9132 21.6743 17.324C21.1575 17.8595 20.5868 18.5364 20.3086 19.2299C20.6456 20.0788 21.1324 20.713 21.7878 21.3491C21.7554 21.4341 21.7226 21.5187 21.69 21.6033C21.4521 22.2185 21.2168 22.8267 21.1449 23.4903C21.0274 23.496 20.89 23.4987 20.7402 23.5017C19.976 23.5171 18.888 23.5389 18.4633 23.984C17.908 24.5658 17.9753 26.0814 18.0482 26.8342C18.0861 27.2262 18.1875 27.7822 18.5258 28.0388C18.9636 28.3712 19.6598 28.3772 20.2914 28.3826C20.5547 28.3849 20.8069 28.3871 21.0244 28.4128C21.2645 29.1176 21.5195 29.809 21.8069 30.4964C21.7302 30.5812 21.6374 30.6775 21.5364 30.7822C21.035 31.3024 20.3307 32.0331 20.3768 32.6302C20.4399 33.4515 21.5379 34.5553 22.1739 35.046C22.4709 35.2752 22.9102 35.5358 23.3034 35.4862C23.834 35.4194 24.4267 34.8739 24.9342 34.4067C25.1271 34.2292 25.3077 34.063 25.4678 33.9387C25.5096 33.9636 25.5513 33.9886 25.5929 34.0136C26.1879 34.3701 26.7754 34.7221 27.4506 34.9118C27.4632 35.0478 27.472 35.2026 27.4815 35.3682C27.5254 36.1408 27.5829 37.1495 28.1046 37.5941C28.7405 38.1359 30.3514 38.014 31.1402 37.9098C31.3965 37.8759 31.6227 37.8019 31.8602 37.7034C32.3144 37.1333 32.3703 36.3501 32.4234 35.6071C32.4398 35.3765 32.456 35.1498 32.4837 34.9345C33.2704 34.743 33.8865 34.3884 34.5798 33.9818C34.6954 34.0768 34.8367 34.2095 34.994 34.3572C35.5357 34.8661 36.2671 35.5531 36.7915 35.4894C37.6416 35.386 38.7308 34.3039 39.2098 33.6311C39.4509 33.2922 39.6765 32.8438 39.5912 32.4156C39.4774 31.8449 38.8218 31.246 38.3162 30.7841C38.2069 30.6843 38.1047 30.5909 38.0164 30.5056C38.3309 29.8522 38.6405 29.2079 38.8845 28.5238C39.0053 28.5172 39.1462 28.514 39.2994 28.5106C40.0413 28.4938 41.0705 28.4706 41.4892 28.0178C42.0778 27.381 42.0313 26.0591 41.9571 25.2482C41.9137 24.7734 41.7969 24.109 41.3667 23.8181C40.8431 23.4641 39.9757 23.4756 39.274 23.4849C39.1361 23.4867 39.0045 23.4885 38.8832 23.4873C38.6349 22.7677 38.3763 22.0668 38.0298 21.3873C38.1184 21.3047 38.2313 21.2078 38.3565 21.1004C38.9113 20.6244 39.7075 19.9412 39.7047 19.3713C39.7004 18.5485 38.7572 17.685 38.187 17.163L38.1843 17.1606C37.7994 16.8083 37.2311 16.3541 36.6674 16.4184C36.1064 16.4825 35.3913 17.2122 34.8699 17.7442C34.7365 17.8804 34.6157 18.0036 34.5135 18.0994C33.776 17.6646 33.0885 17.4115 32.2608 17.2004C32.249 17.0663 32.2401 16.9175 32.2307 16.7597C32.1811 15.9286 32.1167 14.8502 31.5276 14.3624C30.9683 13.8994 29.8629 13.987 29.02 14.0538ZM32.6188 21.4064C31.4646 20.7612 30.3725 20.6457 29.0742 20.7322C27.5586 21.0743 26.2718 21.7895 25.4304 23.1287C25.3838 23.2029 25.3391 23.2782 25.2963 23.3547C25.2534 23.431 25.2125 23.5084 25.1736 23.5868C25.1345 23.6651 25.0975 23.7445 25.0624 23.8247C25.0275 23.9049 24.9945 23.9859 24.9635 24.0677C24.9323 24.1496 24.9034 24.2321 24.8766 24.3153C24.8496 24.3987 24.8248 24.4826 24.802 24.567C24.7793 24.6514 24.7586 24.7364 24.74 24.822C24.7215 24.9075 24.7051 24.9934 24.6909 25.0797C24.6766 25.1661 24.6645 25.2526 24.6544 25.3395C24.6444 25.4263 24.6366 25.5134 24.631 25.6007C24.6254 25.688 24.622 25.7754 24.6206 25.8629C24.6193 25.9503 24.6202 26.0377 24.6233 26.1252C24.6262 26.2126 24.6314 26.2999 24.6388 26.387C24.6461 26.4741 24.6556 26.5611 24.6673 26.6478C24.6791 26.7345 24.6929 26.8208 24.7089 26.9069C24.7248 26.9929 24.7429 27.0784 24.7631 27.1635C25.1061 28.5524 26.0674 29.8924 27.3112 30.6203C27.4424 30.6955 27.5765 30.7652 27.7136 30.8291C27.8507 30.8931 27.9903 30.9512 28.1325 31.0034C28.2745 31.0556 28.4185 31.1016 28.5646 31.1416C28.7106 31.1816 28.858 31.2154 29.0069 31.2429C29.1557 31.2704 29.3055 31.2916 29.4562 31.3064C29.607 31.3213 29.7581 31.3298 29.9094 31.332C30.0608 31.3341 30.2121 31.3298 30.3631 31.3191C30.5142 31.3085 30.6645 31.2914 30.8142 31.268C32.4014 30.8393 33.6932 30.1034 34.532 28.6453C35.2304 27.4313 35.4613 25.8883 35.082 24.5353C35.0595 24.4532 35.0351 24.3717 35.0087 24.2908C34.9822 24.21 34.9538 24.1298 34.9233 24.0503C34.8928 23.9708 34.8603 23.8921 34.8259 23.8144C34.7915 23.7365 34.7551 23.6595 34.7167 23.5835C34.6784 23.5074 34.6383 23.4323 34.5961 23.3584C34.554 23.2843 34.5101 23.2114 34.4644 23.1395C34.4186 23.0677 34.3712 22.9969 34.3219 22.9274C34.2727 22.8579 34.2217 22.7897 34.1689 22.7228C34.1162 22.6557 34.0618 22.5901 34.0058 22.5259C33.9498 22.4616 33.8923 22.3987 33.8331 22.3373C33.7738 22.276 33.7132 22.2161 33.651 22.1577C33.5888 22.0993 33.5252 22.0424 33.4602 21.9872C33.3951 21.932 33.3287 21.8784 33.261 21.8266C33.1933 21.7746 33.1243 21.7244 33.054 21.676C32.9839 21.6274 32.9125 21.5806 32.8398 21.5357C32.7673 21.4907 32.6936 21.4476 32.6188 21.4064Z" fill="white"/>
<path fill-rule="evenodd" clip-rule="evenodd" d="M29.02 14.0538C28.8414 14.068 28.6746 14.0812 28.5273 14.0881C28.0202 14.2992 27.71 14.5168 27.5086 15.0445C27.3227 15.5313 27.2982 16.1465 27.2758 16.7064C27.2699 16.8555 27.2641 17.0006 27.2555 17.1384C26.5767 17.3685 25.9228 17.6067 25.2871 17.9396C25.219 17.8683 25.1501 17.7939 25.08 17.7182C24.5658 17.1628 23.9858 16.5364 23.1915 16.5169C22.5864 16.502 22.0709 16.9132 21.6743 17.324C21.1575 17.8595 20.5868 18.5364 20.3086 19.2299C20.6456 20.0788 21.1324 20.713 21.7878 21.3491C21.7554 21.4341 21.7226 21.5187 21.69 21.6033C21.4521 22.2185 21.2168 22.8267 21.1449 23.4903C21.0274 23.496 20.89 23.4987 20.7402 23.5017C19.976 23.5171 18.888 23.5389 18.4633 23.984C17.908 24.5658 17.9753 26.0814 18.0482 26.8342C18.0861 27.2262 18.1875 27.7822 18.5258 28.0388C18.9636 28.3712 19.6598 28.3772 20.2914 28.3826C20.5547 28.3849 20.8069 28.3871 21.0244 28.4128C21.2645 29.1176 21.5195 29.809 21.8069 30.4964C21.7302 30.5812 21.6374 30.6775 21.5364 30.7822C21.035 31.3024 20.3307 32.0331 20.3768 32.6302C20.4399 33.4515 21.5379 34.5553 22.1739 35.046C22.4709 35.2752 22.9102 35.5358 23.3034 35.4862C23.834 35.4194 24.4267 34.8739 24.9342 34.4067C25.1271 34.2292 25.3077 34.063 25.4678 33.9387C25.5096 33.9636 25.5513 33.9886 25.5929 34.0136C26.1879 34.3701 26.7754 34.7221 27.4506 34.9118C27.4632 35.0478 27.472 35.2026 27.4815 35.3682C27.5254 36.1408 27.5829 37.1495 28.1046 37.5941C28.7405 38.1359 30.3514 38.014 31.1402 37.9098C31.3965 37.8759 31.6227 37.8019 31.8602 37.7034C32.3144 37.1333 32.3703 36.3501 32.4234 35.6071C32.4398 35.3765 32.456 35.1498 32.4837 34.9345C33.2704 34.743 33.8865 34.3884 34.5798 33.9818C34.6954 34.0768 34.8367 34.2095 34.994 34.3572C35.5357 34.8661 36.2671 35.5531 36.7915 35.4894C37.6416 35.386 38.7308 34.3039 39.2098 33.6311C39.4509 33.2922 39.6765 32.8438 39.5912 32.4156C39.4774 31.8449 38.8218 31.246 38.3162 30.7841C38.2069 30.6843 38.1047 30.5909 38.0164 30.5056C38.3309 29.8522 38.6405 29.2079 38.8845 28.5238C39.0053 28.5172 39.1462 28.514 39.2994 28.5106C40.0413 28.4938 41.0705 28.4706 41.4892 28.0178C42.0778 27.381 42.0313 26.0591 41.9571 25.2482C41.9137 24.7734 41.7969 24.109 41.3667 23.8181C40.8431 23.4641 39.9757 23.4756 39.274 23.4849C39.1361 23.4867 39.0045 23.4885 38.8832 23.4873C38.6349 22.7677 38.3763 22.0668 38.0298 21.3873C38.1184 21.3047 38.2313 21.2078 38.3565 21.1004C38.9113 20.6244 39.7075 19.9412 39.7047 19.3713C39.7004 18.5485 38.7572 17.685 38.187 17.163L38.1843 17.1606C37.7994 16.8083 37.2311 16.3541 36.6674 16.4184C36.1064 16.4825 35.3913 17.2122 34.8699 17.7442C34.7365 17.8804 34.6157 18.0036 34.5135 18.0994C33.776 17.6646 33.0885 17.4115 32.2608 17.2004C32.249 17.0663 32.2401 16.9175 32.2307 16.7597C32.1811 15.9286 32.1167 14.8502 31.5276 14.3624C30.9683 13.8994 29.8629 13.987 29.02 14.0538ZM32.6188 21.4064C31.4646 20.7612 30.3725 20.6457 29.0742 20.7322C27.5586 21.0743 26.2718 21.7895 25.4304 23.1287C25.3838 23.2029 25.3391 23.2782 25.2963 23.3547C25.2534 23.431 25.2125 23.5084 25.1736 23.5868C25.1345 23.6651 25.0975 23.7445 25.0624 23.8247C25.0275 23.9049 24.9945 23.9859 24.9635 24.0677C24.9323 24.1496 24.9034 24.2321 24.8766 24.3153C24.8496 24.3987 24.8248 24.4826 24.802 24.567C24.7793 24.6514 24.7586 24.7364 24.74 24.822C24.7215 24.9075 24.7051 24.9934 24.6909 25.0797C24.6766 25.1661 24.6645 25.2526 24.6544 25.3395C24.6444 25.4263 24.6366 25.5134 24.631 25.6007C24.6254 25.688 24.622 25.7754 24.6206 25.8629C24.6193 25.9503 24.6202 26.0377 24.6233 26.1252C24.6262 26.2126 24.6314 26.2999 24.6388 26.387C24.6461 26.4741 24.6556 26.5611 24.6673 26.6478C24.6791 26.7345 24.6929 26.8208 24.7089 26.9069C24.7248 26.9929 24.7429 27.0784 24.7631 27.1635C25.1061 28.5524 26.0674 29.8924 27.3112 30.6203C27.4424 30.6955 27.5765 30.7652 27.7136 30.8291C27.8507 30.8931 27.9903 30.9512 28.1325 31.0034C28.2745 31.0556 28.4185 31.1016 28.5646 31.1416C28.7106 31.1816 28.858 31.2154 29.0069 31.2429C29.1557 31.2704 29.3055 31.2916 29.4562 31.3064C29.607 31.3213 29.7581 31.3298 29.9094 31.332C30.0608 31.3341 30.2121 31.3298 30.3631 31.3191C30.5142 31.3085 30.6645 31.2914 30.8142 31.268C32.4014 30.8393 33.6932 30.1034 34.532 28.6453C35.2304 27.4313 35.4613 25.8883 35.082 24.5353C35.0595 24.4532 35.0351 24.3717 35.0087 24.2908C34.9822 24.21 34.9538 24.1298 34.9233 24.0503C34.8928 23.9708 34.8603 23.8921 34.8259 23.8144C34.7915 23.7365 34.7551 23.6595 34.7167 23.5835C34.6784 23.5074 34.6383 23.4323 34.5961 23.3584C34.554 23.2843 34.5101 23.2114 34.4644 23.1395C34.4186 23.0677 34.3712 22.9969 34.3219 22.9274C34.2727 22.8579 34.2217 22.7897 34.1689 22.7228C34.1162 22.6557 34.0618 22.5901 34.0058 22.5259C33.9498 22.4616 33.8923 22.3987 33.8331 22.3373C33.7738 22.276 33.7132 22.2161 33.651 22.1577C33.5888 22.0993 33.5252 22.0424 33.4602 21.9872C33.3951 21.932 33.3287 21.8784 33.261 21.8266C33.1933 21.7746 33.1243 21.7244 33.054 21.676C32.9839 21.6274 32.9125 21.5806 32.8398 21.5357C32.7673 21.4907 32.6936 21.4476 32.6188 21.4064Z" fill="white"/>
<path fill-rule="evenodd" clip-rule="evenodd" d="M29.02 14.0538C28.8414 14.068 28.6746 14.0812 28.5273 14.0881C28.0202 14.2992 27.71 14.5168 27.5086 15.0445C27.3227 15.5313 27.2982 16.1465 27.2758 16.7064C27.2699 16.8555 27.2641 17.0006 27.2555 17.1384C26.5767 17.3685 25.9228 17.6067 25.2871 17.9396C25.219 17.8683 25.1501 17.7939 25.08 17.7182C24.5658 17.1628 23.9858 16.5364 23.1915 16.5169C22.5864 16.502 22.0709 16.9132 21.6743 17.324C21.1575 17.8595 20.5868 18.5364 20.3086 19.2299C20.6456 20.0788 21.1324 20.713 21.7878 21.3491C21.7554 21.4341 21.7226 21.5187 21.69 21.6033C21.4521 22.2185 21.2168 22.8267 21.1449 23.4903C21.0274 23.496 20.89 23.4987 20.7402 23.5017C19.976 23.5171 18.888 23.5389 18.4633 23.984C17.908 24.5658 17.9753 26.0814 18.0482 26.8342C18.0861 27.2262 18.1875 27.7822 18.5258 28.0388C18.9636 28.3712 19.6598 28.3772 20.2914 28.3826C20.5547 28.3849 20.8069 28.3871 21.0244 28.4128C21.2645 29.1176 21.5195 29.809 21.8069 30.4964C21.7302 30.5812 21.6374 30.6775 21.5364 30.7822C21.035 31.3024 20.3307 32.0331 20.3768 32.6302C20.4399 33.4515 21.5379 34.5553 22.1739 35.046C22.4709 35.2752 22.9102 35.5358 23.3034 35.4862C23.834 35.4194 24.4267 34.8739 24.9342 34.4067C25.1271 34.2292 25.3077 34.063 25.4678 33.9387C25.5096 33.9636 25.5513 33.9886 25.5929 34.0136C26.1879 34.3701 26.7754 34.7221 27.4506 34.9118C27.4632 35.0478 27.472 35.2026 27.4815 35.3682C27.5254 36.1408 27.5829 37.1495 28.1046 37.5941C28.7405 38.1359 30.3514 38.014 31.1402 37.9098C31.3965 37.8759 31.6227 37.8019 31.8602 37.7034C32.3144 37.1333 32.3703 36.3501 32.4234 35.6071C32.4398 35.3765 32.456 35.1498 32.4837 34.9345C33.2704 34.743 33.8865 34.3884 34.5798 33.9818C34.6954 34.0768 34.8367 34.2095 34.994 34.3572C35.5357 34.8661 36.2671 35.5531 36.7915 35.4894C37.6416 35.386 38.7308 34.3039 39.2098 33.6311C39.4509 33.2922 39.6765 32.8438 39.5912 32.4156C39.4774 31.8449 38.8218 31.246 38.3162 30.7841C38.2069 30.6843 38.1047 30.5909 38.0164 30.5056C38.3309 29.8522 38.6405 29.2079 38.8845 28.5238C39.0053 28.5172 39.1462 28.514 39.2994 28.5106C40.0413 28.4938 41.0705 28.4706 41.4892 28.0178C42.0778 27.381 42.0313 26.0591 41.9571 25.2482C41.9137 24.7734 41.7969 24.109 41.3667 23.8181C40.8431 23.4641 39.9757 23.4756 39.274 23.4849C39.1361 23.4867 39.0045 23.4885 38.8832 23.4873C38.6349 22.7677 38.3763 22.0668 38.0298 21.3873C38.1184 21.3047 38.2313 21.2078 38.3565 21.1004C38.9113 20.6244 39.7075 19.9412 39.7047 19.3713C39.7004 18.5485 38.7572 17.685 38.187 17.163L38.1843 17.1606C37.7994 16.8083 37.2311 16.3541 36.6674 16.4184C36.1064 16.4825 35.3913 17.2122 34.8699 17.7442C34.7365 17.8804 34.6157 18.0036 34.5135 18.0994C33.776 17.6646 33.0885 17.4115 32.2608 17.2004C32.249 17.0663 32.2401 16.9175 32.2307 16.7597C32.1811 15.9286 32.1167 14.8502 31.5276 14.3624C30.9683 13.8994 29.8629 13.987 29.02 14.0538ZM32.6188 21.4064C31.4646 20.7612 30.3725 20.6457 29.0742 20.7322C27.5586 21.0743 26.2718 21.7895 25.4304 23.1287C25.3838 23.2029 25.3391 23.2782 25.2963 23.3547C25.2534 23.431 25.2125 23.5084 25.1736 23.5868C25.1345 23.6651 25.0975 23.7445 25.0624 23.8247C25.0275 23.9049 24.9945 23.9859 24.9635 24.0677C24.9323 24.1496 24.9034 24.2321 24.8766 24.3153C24.8496 24.3987 24.8248 24.4826 24.802 24.567C24.7793 24.6514 24.7586 24.7364 24.74 24.822C24.7215 24.9075 24.7051 24.9934 24.6909 25.0797C24.6766 25.1661 24.6645 25.2526 24.6544 25.3395C24.6444 25.4263 24.6366 25.5134 24.631 25.6007C24.6254 25.688 24.622 25.7754 24.6206 25.8629C24.6193 25.9503 24.6202 26.0377 24.6233 26.1252C24.6262 26.2126 24.6314 26.2999 24.6388 26.387C24.6461 26.4741 24.6556 26.5611 24.6673 26.6478C24.6791 26.7345 24.6929 26.8208 24.7089 26.9069C24.7248 26.9929 24.7429 27.0784 24.7631 27.1635C25.1061 28.5524 26.0674 29.8924 27.3112 30.6203C27.4424 30.6955 27.5765 30.7652 27.7136 30.8291C27.8507 30.8931 27.9903 30.9512 28.1325 31.0034C28.2745 31.0556 28.4185 31.1016 28.5646 31.1416C28.7106 31.1816 28.858 31.2154 29.0069 31.2429C29.1557 31.2704 29.3055 31.2916 29.4562 31.3064C29.607 31.3213 29.7581 31.3298 29.9094 31.332C30.0608 31.3341 30.2121 31.3298 30.3631 31.3191C30.5142 31.3085 30.6645 31.2914 30.8142 31.268C32.4014 30.8393 33.6932 30.1034 34.532 28.6453C35.2304 27.4313 35.4613 25.8883 35.082 24.5353C35.0595 24.4532 35.0351 24.3717 35.0087 24.2908C34.9822 24.21 34.9538 24.1298 34.9233 24.0503C34.8928 23.9708 34.8603 23.8921 34.8259 23.8144C34.7915 23.7365 34.7551 23.6595 34.7167 23.5835C34.6784 23.5074 34.6383 23.4323 34.5961 23.3584C34.554 23.2843 34.5101 23.2114 34.4644 23.1395C34.4186 23.0677 34.3712 22.9969 34.3219 22.9274C34.2727 22.8579 34.2217 22.7897 34.1689 22.7228C34.1162 22.6557 34.0618 22.5901 34.0058 22.5259C33.9498 22.4616 33.8923 22.3987 33.8331 22.3373C33.7738 22.276 33.7132 22.2161 33.651 22.1577C33.5888 22.0993 33.5252 22.0424 33.4602 21.9872C33.3951 21.932 33.3287 21.8784 33.261 21.8266C33.1933 21.7746 33.1243 21.7244 33.054 21.676C32.9839 21.6274 32.9125 21.5806 32.8398 21.5357C32.7673 21.4907 32.6936 21.4476 32.6188 21.4064Z" fill="white"/>
</svg>
