<svg width="62" height="62" viewBox="0 0 62 62" fill="none" xmlns="http://www.w3.org/2000/svg">
<path d="M2.46098 16.8393L15.1909 4.10942C16.7666 2.53368 18.9038 1.64844 21.1322 1.64844H21.3507C18.1737 1.64844 15.5983 4.22389 15.5983 7.40087V17.2467H5.75242C2.57544 17.2467 0 19.8222 0 22.9992V22.7807C0 20.5522 0.88524 18.4151 2.46098 16.8393Z" fill="#DDDDDD"/>
<path d="M21.1322 1.64844H21.3507C18.1737 1.64844 15.5983 4.22389 15.5983 7.40087V17.2467H5.75242C2.57544 17.2467 0 19.8222 0 22.9992V47.0015H62V1.64844H21.1322Z" fill="white"/>
<path d="M56.9159 20.9312H5.08401V23.8597H56.9159V20.9312Z" fill="#DDDDDD"/>
<path d="M56.9159 27.8872H5.08401V30.8157H56.9159V27.8872Z" fill="#DDDDDD"/>
<path d="M56.9159 34.8428H5.08401V37.7713H56.9159V34.8428Z" fill="#DDDDDD"/>
<path d="M54.0516 60.3516L43.3129 54.0547L32.5742 60.3516V37.3438H54.0516V60.3516Z" fill="#FF9500"/>
<path d="M32.5742 42.1875V60.3516L43.291 54.0547L43.085 46.9991L32.5742 42.1875Z" fill="#FF9500"/>
<path d="M43.291 47.3477C51.283 47.3477 57.7617 40.8689 57.7617 32.877C57.7617 24.885 51.283 18.4062 43.291 18.4062C35.2991 18.4062 28.8203 24.885 28.8203 32.877C28.8203 40.8689 35.2991 47.3477 43.291 47.3477Z" fill="#FF9500"/>
<path d="M43.3148 43.0359C48.9123 43.0359 53.45 38.4983 53.45 32.9008C53.45 27.3033 48.9123 22.7656 43.3148 22.7656C37.7173 22.7656 33.1797 27.3033 33.1797 32.9008C33.1797 38.4983 37.7173 43.0359 43.3148 43.0359Z" fill="white"/>
<path d="M43.3024 10.2837H18.6976V13.2122H43.3024V10.2837Z" fill="#DDDDDD"/>
</svg>
