<svg width="284" height="277" viewBox="0 0 284 277" fill="none" xmlns="http://www.w3.org/2000/svg">
<path d="M239.601 169.055C209.284 166.594 178.718 165.966 148.283 166.017C117.973 166.072 87.6257 166.851 57.4069 168.44C40.7511 169.313 23.8259 170.099 7.42899 172.478C5.29305 172.785 5.69315 175.455 7.88526 175.439C22.8555 175.271 37.808 174.021 52.748 173.336C67.8343 172.638 82.92 171.972 98.0212 171.549C128.056 170.714 158.138 170.59 188.209 170.949C205.322 171.151 222.431 171.481 239.544 171.618C241.673 171.633 241.684 169.247 239.601 169.071L239.601 169.055Z" fill="#00AAFF"/>
<path d="M203.763 180.807C181.701 179.079 159.459 178.62 137.313 178.632C115.258 178.647 93.1774 179.162 71.1902 180.239C59.0715 180.83 46.7565 181.361 34.8273 182.995C33.2734 183.206 33.5666 185.055 35.1616 185.046C46.0545 184.941 56.9336 184.087 67.804 183.625C78.7809 183.153 89.7574 182.704 100.745 182.423C122.599 181.868 144.488 181.806 166.37 182.078C178.821 182.231 191.271 182.473 203.724 182.582C205.273 182.594 205.279 180.941 203.763 180.818L203.763 180.807Z" fill="#00AAFF"/>
<path d="M235.524 89.3879C232.604 93.1553 229.685 96.8418 226.171 100.086C224.047 102.048 222.241 103.278 221.66 106.213C221.179 108.641 230.747 104.817 232.103 104.506C236.493 103.497 240.786 102.265 245.287 101.852C247.312 101.667 250.574 101.488 246.767 100.284C243.847 99.361 240.716 99.2709 237.811 98.2441C234.238 96.9811 231.788 94.3447 228.654 92.3879C227.74 91.8173 218.317 87.0701 220.794 91.2563C223.729 96.2165 225.651 99.0444 230.187 102.903C233.253 105.511 235.654 108.309 238.254 111.309C238.768 111.902 238.608 106.86 238.665 106.284C239.016 102.717 241.556 84.8391 236.619 83.8609" stroke="#00AAFF" stroke-width="3" stroke-linecap="round"/>
</svg>
