<svg width="55" height="68" viewBox="0 0 55 68" fill="none" xmlns="http://www.w3.org/2000/svg">
<path d="M2.42215 11.5327H30.3751C31.7116 11.5327 32.7972 12.6183 32.7972 13.9549V64.76C32.7972 66.0965 31.7116 67.1822 30.3751 67.1822H2.42215C1.0856 67.1822 0 66.0965 0 64.76V13.9549C0 12.6183 1.0856 11.5327 2.42215 11.5327Z" fill="#484A49"/>
<path d="M53.4998 31.4282H35.4318C34.6033 31.4282 33.9316 32.0999 33.9316 32.9284V65.682C33.9316 66.5105 34.6033 67.1822 35.4318 67.1822H53.4998C54.3283 67.1822 55 66.5105 55 65.682V32.9284C55 32.0999 54.3283 31.4282 53.4998 31.4282Z" fill="#484A49"/>
<path d="M5.75538 22.6396H13.2564C13.6165 22.6396 13.9056 22.9288 13.9056 23.2888V30.7899C13.9056 31.1499 13.6165 31.439 13.2564 31.439H5.75538C5.39533 31.439 5.1062 31.1499 5.1062 30.7899V23.2888C5.1062 22.9288 5.39533 22.6396 5.75538 22.6396Z" fill="white"/>
<path d="M19.541 22.6396H27.0421C27.4021 22.6396 27.6912 22.9288 27.6912 23.2888V30.7899C27.6912 31.1499 27.4021 31.439 27.0421 31.439H19.541C19.181 31.439 18.8918 31.1499 18.8918 30.7899V23.2888C18.8918 22.9288 19.181 22.6396 19.541 22.6396Z" fill="white"/>
<path d="M5.75538 36.7905H13.2564C13.6165 36.7905 13.9056 37.0797 13.9056 37.4397V44.9407C13.9056 45.3008 13.6165 45.5899 13.2564 45.5899H5.75538C5.39533 45.5899 5.1062 45.3008 5.1062 44.9407V37.4397C5.1062 37.0797 5.39533 36.7905 5.75538 36.7905Z" fill="white"/>
<path d="M19.541 36.7905H27.0421C27.4021 36.7905 27.6912 37.0797 27.6912 37.4397V44.9407C27.6912 45.3008 27.4021 45.5899 27.0421 45.5899H19.541C19.181 45.5899 18.8918 45.3008 18.8918 44.9407V37.4397C18.8918 37.0797 19.181 36.7905 19.541 36.7905Z" fill="white"/>
<path d="M5.75538 50.9473H13.2564C13.6165 50.9473 13.9056 51.2364 13.9056 51.5964V59.0975C13.9056 59.4575 13.6165 59.7467 13.2564 59.7467H5.75538C5.39533 59.7467 5.1062 59.4575 5.1062 59.0975V51.5964C5.1062 51.2364 5.39533 50.9473 5.75538 50.9473Z" fill="white"/>
<path d="M19.541 50.9473H27.0421C27.4021 50.9473 27.6912 51.2364 27.6912 51.5964V59.0975C27.6912 59.4575 27.4021 59.7467 27.0421 59.7467H19.541C19.181 59.7467 18.8918 59.4575 18.8918 59.0975V51.5964C18.8918 51.2364 19.181 50.9473 19.541 50.9473Z" fill="white"/>
<path d="M32.7918 15.9946H0V18.0567H32.7918V15.9946Z" fill="#09AAF7"/>
<path d="M17.2227 5.14453H15.5752V11.5327H17.2227V5.14453Z" fill="#494949"/>
<path d="M19.2354 2.84221C19.2354 4.40788 17.9644 5.68441 16.3932 5.68441C14.8221 5.68441 13.551 4.41333 13.551 2.84221C13.551 1.27108 14.8276 0 16.3987 0C17.9698 0 19.2409 1.27108 19.2409 2.84221H19.2354Z" fill="#FFC600"/>
<path d="M42.0656 37.314H38.9016C38.6756 37.314 38.4924 37.4971 38.4924 37.7231V40.8872C38.4924 41.1131 38.6756 41.2963 38.9016 41.2963H42.0656C42.2916 41.2963 42.4748 41.1131 42.4748 40.8872V37.7231C42.4748 37.4971 42.2916 37.314 42.0656 37.314Z" fill="white"/>
<path d="M50.0359 37.314H46.8718C46.6458 37.314 46.4626 37.4971 46.4626 37.7231V40.8872C46.4626 41.1131 46.6458 41.2963 46.8718 41.2963H50.0359C50.2618 41.2963 50.445 41.1131 50.445 40.8872V37.7231C50.445 37.4971 50.2618 37.314 50.0359 37.314Z" fill="white"/>
<path d="M42.0656 43.981H38.9016C38.6756 43.981 38.4924 44.1641 38.4924 44.3901V47.5542C38.4924 47.7801 38.6756 47.9633 38.9016 47.9633H42.0656C42.2916 47.9633 42.4748 47.7801 42.4748 47.5542V44.3901C42.4748 44.1641 42.2916 43.981 42.0656 43.981Z" fill="white"/>
<path d="M50.0359 43.981H46.8718C46.6458 43.981 46.4626 44.1641 46.4626 44.3901V47.5542C46.4626 47.7801 46.6458 47.9633 46.8718 47.9633H50.0359C50.2618 47.9633 50.445 47.7801 50.445 47.5542V44.3901C50.445 44.1641 50.2618 43.981 50.0359 43.981Z" fill="white"/>
<path d="M42.0656 50.6475H38.9016C38.6756 50.6475 38.4924 50.8306 38.4924 51.0566V54.2207C38.4924 54.4466 38.6756 54.6298 38.9016 54.6298H42.0656C42.2916 54.6298 42.4748 54.4466 42.4748 54.2207V51.0566C42.4748 50.8306 42.2916 50.6475 42.0656 50.6475Z" fill="white"/>
<path d="M50.0359 50.6475H46.8718C46.6458 50.6475 46.4626 50.8306 46.4626 51.0566V54.2207C46.4626 54.4466 46.6458 54.6298 46.8718 54.6298H50.0359C50.2618 54.6298 50.445 54.4466 50.445 54.2207V51.0566C50.445 50.8306 50.2618 50.6475 50.0359 50.6475Z" fill="white"/>
<path d="M42.0656 57.3076H38.9016C38.6756 57.3076 38.4924 57.4908 38.4924 57.7168V60.8808C38.4924 61.1068 38.6756 61.29 38.9016 61.29H42.0656C42.2916 61.29 42.4748 61.1068 42.4748 60.8808V57.7168C42.4748 57.4908 42.2916 57.3076 42.0656 57.3076Z" fill="white"/>
<path d="M50.0359 57.3076H46.8718C46.6458 57.3076 46.4626 57.4908 46.4626 57.7168V60.8808C46.4626 61.1068 46.6458 61.29 46.8718 61.29H50.0359C50.2618 61.29 50.445 61.1068 50.445 60.8808V57.7168C50.445 57.4908 50.2618 57.3076 50.0359 57.3076Z" fill="white"/>
<path d="M53.7239 26.9004H35.214C34.9369 26.9004 34.7122 27.1251 34.7122 27.4023V28.2751C34.7122 28.5523 34.9369 28.777 35.214 28.777H53.7239C54.001 28.777 54.2257 28.5523 54.2257 28.2751V27.4023C54.2257 27.1251 54.001 26.9004 53.7239 26.9004Z" fill="#494949"/>
<path d="M38.22 28.7769H36.6052V31.4336H38.22V28.7769Z" fill="#494949"/>
<path d="M42.7202 28.7769H41.1055V31.4336H42.7202V28.7769Z" fill="#494949"/>
<path d="M47.221 28.7769H45.6062V31.4336H47.221V28.7769Z" fill="#494949"/>
<path d="M51.7217 28.7769H50.1069V31.4336H51.7217V28.7769Z" fill="#494949"/>
</svg>
