<svg width="70" height="57" viewBox="0 0 70 57" fill="none" xmlns="http://www.w3.org/2000/svg">
<path d="M34.9976 2.35059L8.5105 21.1713V54.3825C8.5105 55.8269 9.69686 56.9998 11.1577 56.9998H58.8376C60.2984 56.9998 61.4848 55.8269 61.4848 54.3825V21.1713L34.9976 2.35059Z" fill="#484A49"/>
<path d="M67.6224 28.2237C67.1371 28.2237 66.6468 28.0783 66.2252 27.773L34.9976 5.25893L3.77968 27.773C2.72078 28.5388 1.23048 28.3061 0.46082 27.2592C-0.313744 26.2122 -0.0784337 24.7388 0.980464 23.9778L33.6004 0.450765C34.4338 -0.150255 35.5662 -0.150255 36.3996 0.450765L69.0195 23.9778C70.0784 24.7436 70.3138 26.2122 69.5392 27.2592C69.0735 27.8893 68.3479 28.2237 67.6175 28.2237H67.6224Z" fill="#09AAF7"/>
<path d="M33.9974 15.8882H27.1636V25.8777H33.9974V15.8882Z" fill="#FFC600"/>
<path d="M42.8363 15.8882H36.0024V25.8777H42.8363V15.8882Z" fill="#FFC600"/>
<path d="M27.0362 32.3921H22.4133V36.9628H27.0362V32.3921Z" fill="white"/>
<path d="M37.3113 32.3921H32.6885V36.9628H37.3113V32.3921Z" fill="white"/>
<path d="M47.5867 32.3921H42.9639V36.9628H47.5867V32.3921Z" fill="white"/>
<path d="M27.0362 41.5288H22.4133V46.0995H27.0362V41.5288Z" fill="white"/>
<path d="M37.3113 41.5288H32.6885V46.0995H37.3113V41.5288Z" fill="white"/>
<path d="M47.5867 41.5288H42.9639V46.0995H47.5867V41.5288Z" fill="white"/>
</svg>
