<svg width="60" height="68" viewBox="0 0 60 68" fill="none" xmlns="http://www.w3.org/2000/svg">
<path d="M18.2611 67.0412H1.73889C0.777778 67.0412 0 66.2606 0 65.296V37.3448L20 26.1934V65.296C20 66.2606 19.2222 67.0412 18.2611 67.0412Z" fill="#484A49"/>
<path d="M38.2611 67.0412H21.7333C20.7722 67.0412 19.9944 66.2606 19.9944 65.296V37.3448L39.9944 26.1934V65.296C39.9944 66.2606 39.2166 67.0412 38.2555 67.0412H38.2611Z" fill="#484A49"/>
<path d="M58.2611 67.0412H41.7333C40.7722 67.0412 39.9944 66.2606 39.9944 65.296V37.3448L59.9944 26.1934V65.296C59.9944 66.2606 59.2166 67.0412 58.2555 67.0412H58.2611Z" fill="#484A49"/>
<path d="M13.9777 42.4575H6.0166V47.1021H13.9777V42.4575Z" fill="white"/>
<path d="M33.9777 42.4575H26.0166V47.1021H33.9777V42.4575Z" fill="white"/>
<path d="M53.9777 42.4575H46.0166V47.1021H53.9777V42.4575Z" fill="white"/>
<path d="M6.01667 27.9385H0V37.7629H6.01667V27.9385Z" fill="#484A49"/>
<path d="M5.27771 23.2661C7.07877 23.2661 8.53882 21.8008 8.53882 19.9932C8.53882 18.1856 7.07877 16.7202 5.27771 16.7202C3.47665 16.7202 2.0166 18.1856 2.0166 19.9932C2.0166 21.8008 3.47665 23.2661 5.27771 23.2661Z" fill="#09AAF7"/>
<path d="M16.0388 19.6471C18.8769 19.6471 21.1777 17.338 21.1777 14.4896C21.1777 11.6411 18.8769 9.33203 16.0388 9.33203C13.2007 9.33203 10.8999 11.6411 10.8999 14.4896C10.8999 17.338 13.2007 19.6471 16.0388 19.6471Z" fill="#09AAF7"/>
<path d="M37.3319 9.27893C37.9556 5.40603 35.3329 1.75904 31.474 1.13315C27.6151 0.507268 23.9813 3.13949 23.3577 7.0124C22.7341 10.8853 25.3568 14.5323 29.2156 15.1582C33.0745 15.7841 36.7083 13.1518 37.3319 9.27893Z" fill="#09AAF7"/>
<path d="M13.5223 56.6758H6.4834V67.0411H13.5223V56.6758Z" fill="#FFC600"/>
<path d="M33.5223 56.6758H26.4834V67.0411H33.5223V56.6758Z" fill="#FFC600"/>
<path d="M53.5223 56.6758H46.4834V67.0411H53.5223V56.6758Z" fill="#FFC600"/>
</svg>
