<svg width="56" height="53" viewBox="0 0 56 53" fill="none" xmlns="http://www.w3.org/2000/svg">
<path d="M53.0414 15.5835H34.0289C32.8306 15.5835 31.8591 16.5549 31.8591 17.7532V50.83C31.8591 52.0284 32.8306 52.9998 34.0289 52.9998H53.0414C54.2397 52.9998 55.2111 52.0284 55.2111 50.83V17.7532C55.2111 16.5549 54.2397 15.5835 53.0414 15.5835Z" fill="#09AAF7"/>
<path d="M40.9337 52.9999H2.16974C0.973 52.9999 0 52.0269 0 50.8302V2.16974C0 0.973 0.973 0 2.16974 0H38.7639C39.9607 0 40.9337 0.973 40.9337 2.16974V52.9999Z" fill="#484A49"/>
<path d="M12.014 7.45068H7.10742V12.3573H12.014V7.45068Z" fill="white"/>
<path d="M22.9203 7.45068H18.0137V12.3573H22.9203V7.45068Z" fill="white"/>
<path d="M33.8261 7.45068H28.9194V12.3573H33.8261V7.45068Z" fill="white"/>
<path d="M12.014 17.2642H7.10742V22.1708H12.014V17.2642Z" fill="white"/>
<path d="M22.9203 17.2642H18.0137V22.1708H22.9203V17.2642Z" fill="white"/>
<path d="M33.8261 17.2642H28.9194V22.1708H33.8261V17.2642Z" fill="white"/>
<path d="M12.014 27.0723H7.10742V31.9789H12.014V27.0723Z" fill="white"/>
<path d="M22.9203 27.0723H18.0137V31.9789H22.9203V27.0723Z" fill="white"/>
<path d="M33.8261 27.0723H28.9194V31.9789H33.8261V27.0723Z" fill="white"/>
<path d="M27.6395 39.5967H13.2891V53.0001H27.6395V39.5967Z" fill="#FFC600"/>
</svg>
